<svg width="48" height="48" viewBox="0 0 48 48" fill="none" xmlns="http://www.w3.org/2000/svg">
<path fill-rule="evenodd" clip-rule="evenodd" d="M22.4535 9.59294C23.1109 8.35134 24.8895 8.35135 25.5468 9.59294L38.5641 34.1811C39.1811 35.3466 38.3362 36.75 37.0174 36.75H10.9829C9.66412 36.75 8.81922 35.3467 9.43625 34.1812L22.4535 9.59294ZM27.7563 8.42322C26.1599 5.40791 21.8404 5.40793 20.2441 8.42322L7.22678 33.0114C5.72827 35.8419 7.78019 39.25 10.9829 39.25H37.0174C40.2201 39.25 42.272 35.8419 40.7735 33.0114L27.7563 8.42322ZM25.25 16.5C25.25 15.8096 24.6904 15.25 24 15.25C23.3096 15.25 22.75 15.8096 22.75 16.5V27C22.75 27.6904 23.3096 28.25 24 28.25C24.6904 28.25 25.25 27.6904 25.25 27V16.5ZM25.25 31C25.25 30.3096 24.6904 29.75 24 29.75C23.3096 29.75 22.75 30.3096 22.75 31V31.01C22.75 31.7004 23.3096 32.26 24 32.26C24.6904 32.26 25.25 31.7004 25.25 31.01V31Z" fill="#005D92"/>
</svg>
