<svg width="48" height="48" viewBox="0 0 48 48" fill="none" xmlns="http://www.w3.org/2000/svg">
<path fill-rule="evenodd" clip-rule="evenodd" d="M41.0002 8.75L7.00022 8.75013C5.2053 8.75014 3.75023 10.2052 3.75023 12.0001V24C3.75023 24.6904 4.30988 25.25 5.00023 25.25C5.69059 25.25 6.25023 24.6904 6.25023 24V12.0001C6.25023 11.5859 6.58602 11.2501 7.00023 11.2501L41.0002 11.25C41.4144 11.25 41.7502 11.5858 41.7502 12V36C41.7502 36.4142 41.4144 36.75 41.0002 36.75H7.01C6.59579 36.75 6.26 36.4142 6.26 36V32C6.26 31.3096 5.70036 30.75 5.01 30.75C4.31964 30.75 3.76 31.3096 3.76 32V36C3.76 37.7949 5.21507 39.25 7.01 39.25H41.0002C42.7952 39.25 44.2502 37.7949 44.2502 36V12C44.2502 10.2051 42.7952 8.74999 41.0002 8.75ZM5 27.25C4.30964 27.25 3.75 27.8096 3.75 28.5C3.75 29.1904 4.30964 29.75 5 29.75H5.01C5.70036 29.75 6.26 29.1904 6.26 28.5C6.26 27.8096 5.70036 27.25 5.01 27.25H5ZM13.5 17.25C13.5 16.5596 12.9404 16 12.25 16C11.5596 16 11 16.5596 11 17.25L11 30.75C11 31.4404 11.5596 32 12.25 32C12.9404 32 13.5 31.4404 13.5 30.75L13.5 17.25ZM18.25 16C18.9404 16 19.5 16.5596 19.5 17.25L19.5 30.75C19.5 31.4404 18.9404 32 18.25 32C17.5596 32 17 31.4404 17 30.75L17 17.25C17 16.5596 17.5596 16 18.25 16ZM25.5 17.25C25.5 16.5596 24.9404 16 24.25 16C23.5596 16 23 16.5596 23 17.25V30.75C23 31.4404 23.5596 32 24.25 32C24.9404 32 25.5 31.4404 25.5 30.75V17.25ZM30.25 16C30.9404 16 31.5 16.5596 31.5 17.25V30.75C31.5 31.4404 30.9404 32 30.25 32C29.5596 32 29 31.4404 29 30.75V17.25C29 16.5596 29.5596 16 30.25 16ZM37.5 17.25C37.5 16.5596 36.9404 16 36.25 16C35.5596 16 35 16.5596 35 17.25V30.75C35 31.4404 35.5596 32 36.25 32C36.9404 32 37.5 31.4404 37.5 30.75V17.25Z" fill="#005D92"/>
</svg>
