<svg width="48" height="48" viewBox="0 0 48 48" fill="none" xmlns="http://www.w3.org/2000/svg">
<path fill-rule="evenodd" clip-rule="evenodd" d="M11.329 2.65844C12.07 2.28796 12.971 2.5883 13.3415 3.32926L33.3415 43.3293C33.712 44.0702 33.4116 44.9712 32.6707 45.3417C31.9297 45.7122 31.0287 45.4119 30.6582 44.6709L27.9478 39.25H7.01C5.21507 39.25 3.76 37.7949 3.76 36V32C3.76 31.3097 4.31964 30.75 5.01 30.75C5.70036 30.75 6.26 31.3097 6.26 32V36C6.26 36.4142 6.59579 36.75 7.01 36.75H26.6978L24.3217 31.998C24.298 31.9993 24.2741 32 24.25 32C23.5596 32 23 31.4404 23 30.75V29.3545L19.5 22.3545L19.5 30.75C19.5 31.4404 18.9404 32 18.25 32C17.5596 32 17 31.4404 17 30.75L17 17.3545L13.9478 11.2502H7.00024C6.58602 11.2502 6.25023 11.5859 6.25023 12.0002V24C6.25023 24.6904 5.69059 25.25 5.00023 25.25C4.30988 25.25 3.75023 24.6904 3.75023 24V12.0002C3.75023 10.2052 5.20531 8.75015 7.00024 8.75015H12.6978L10.6582 4.6709C10.2877 3.92994 10.5881 3.02893 11.329 2.65844ZM18.75 10C18.75 9.30964 19.3096 8.75 20 8.75H41.0002C42.7952 8.75 44.2502 10.2051 44.2502 12V36C44.2502 37.7949 42.7952 39.25 41.0002 39.25H33.5C32.8096 39.25 32.25 38.6904 32.25 38C32.25 37.3097 32.8096 36.75 33.5 36.75H41.0002C41.4144 36.75 41.7502 36.4142 41.7502 36V12C41.7502 11.5858 41.4144 11.25 41.0002 11.25H20C19.3096 11.25 18.75 10.6904 18.75 10ZM3.75 28.5C3.75 27.8097 4.30964 27.25 5 27.25H5.01C5.70036 27.25 6.26 27.8097 6.26 28.5C6.26 29.1904 5.70036 29.75 5.01 29.75H5C4.30964 29.75 3.75 29.1904 3.75 28.5ZM13.5 17.25C13.5 16.5596 12.9404 16 12.25 16C11.5596 16 11 16.5596 11 17.25L11 30.75C11 31.4404 11.5596 32 12.25 32C12.9404 32 13.5 31.4404 13.5 30.75L13.5 17.25ZM23 17.25V19.5C23 20.1904 23.5596 20.75 24.25 20.75C24.9404 20.75 25.5 20.1904 25.5 19.5V17.25C25.5 16.5596 24.9404 16 24.25 16C23.5596 16 23 16.5596 23 17.25ZM29 30L29 17.25C29 16.5596 29.5596 16 30.25 16C30.9404 16 31.5 16.5596 31.5 17.25L31.5 30C31.5 30.6904 30.9404 31.25 30.25 31.25C29.5596 31.25 29 30.6904 29 30ZM37.5 17.25C37.5 16.5596 36.9404 16 36.25 16C35.5596 16 35 16.5596 35 17.25V30.75C35 31.4404 35.5596 32 36.25 32C36.9404 32 37.5 31.4404 37.5 30.75V17.25Z" fill="#005D92"/>
</svg>
