<svg width="48" height="48" viewBox="0 0 48 48" fill="none" xmlns="http://www.w3.org/2000/svg">
<path fill-rule="evenodd" clip-rule="evenodd" d="M19.75 8C19.75 5.65279 21.6528 3.75 24 3.75C26.3472 3.75 28.25 5.65279 28.25 8V9.52946C32.4911 11.1459 35.5937 15.1141 35.9124 19.8947L36.2086 24.3377C36.2134 24.409 36.2438 24.4761 36.2943 24.5266L37.8483 26.0806C38.7458 26.978 39.25 28.1953 39.25 29.4645C39.25 32.1074 37.1074 34.25 34.4645 34.25H13.5355C10.8926 34.25 8.75 32.1074 8.75 29.4645C8.75 28.1953 9.2542 26.978 10.1517 26.0806L11.7057 24.5266C11.7562 24.4761 11.7866 24.409 11.7914 24.3377L12.0876 19.8947C12.4063 15.1141 15.5089 11.1459 19.75 9.52946V8ZM22.25 8.87764C22.8216 8.79353 23.406 8.75001 24 8.75001C24.594 8.75001 25.1784 8.79353 25.75 8.87764V8C25.75 7.0335 24.9665 6.25 24 6.25C23.0335 6.25 22.25 7.0335 22.25 8V8.87764ZM24 11.25C19.0308 11.25 14.9126 15.1028 14.582 20.061L14.2858 24.504C14.2408 25.1795 13.9521 25.8156 13.4734 26.2943L11.9194 27.8483C11.4908 28.277 11.25 28.8583 11.25 29.4645C11.25 30.7267 12.2733 31.75 13.5355 31.75H34.4645C35.7267 31.75 36.75 30.7267 36.75 29.4645C36.75 28.8583 36.5092 28.277 36.0806 27.8483L34.5266 26.2943C34.0479 25.8156 33.7592 25.1795 33.7142 24.504L33.418 20.061C33.0874 15.1028 28.9692 11.25 24 11.25ZM17.6719 17.1664C19.0002 15.0411 21.3297 13.75 23.836 13.75H24C24.6904 13.75 25.25 14.3096 25.25 15C25.25 15.6904 24.6904 16.25 24 16.25H23.836C22.1917 16.25 20.6634 17.0971 19.7919 18.4914C19.4378 19.0581 19.25 19.7128 19.25 20.381V20.5C19.25 21.1904 18.6904 21.75 18 21.75C17.3096 21.75 16.75 21.1904 16.75 20.5V20.381C16.75 19.2442 17.0695 18.1304 17.6719 17.1664ZM18 22.75C18.6904 22.75 19.25 23.3096 19.25 24V24.01C19.25 24.7004 18.6904 25.26 18 25.26C17.3096 25.26 16.75 24.7004 16.75 24.01V24C16.75 23.3096 17.3096 22.75 18 22.75ZM18.7549 36.7743C19.4318 36.6389 20.0903 37.0779 20.2257 37.7549L20.4413 38.8325C20.7805 40.5289 22.27 41.75 24 41.75C25.73 41.75 27.2195 40.5289 27.5587 38.8325L27.7743 37.7549C27.9097 37.0779 28.5682 36.6389 29.2451 36.7743C29.9221 36.9097 30.3611 37.5682 30.2257 38.2451L30.0102 39.3228C29.4372 42.1878 26.9217 44.25 24 44.25C21.0783 44.25 18.5628 42.1878 17.9898 39.3228L17.7743 38.2451C17.6389 37.5682 18.0779 36.9097 18.7549 36.7743Z" fill="#005D92"/>
</svg>
