<svg width="48" height="48" viewBox="0 0 48 48" fill="none" xmlns="http://www.w3.org/2000/svg">
<path fill-rule="evenodd" clip-rule="evenodd" d="M23.5216 2.84513C23.9887 2.65165 24.5264 2.75859 24.8839 3.11609L34.8839 13.1161C35.372 13.6042 35.372 14.3957 34.8839 14.8839L25.7678 24L34.8839 33.1161C35.372 33.6042 35.372 34.3957 34.8839 34.8839L24.8839 44.8839C24.5264 45.2414 23.9887 45.3483 23.5216 45.1548C23.0546 44.9613 22.75 44.5056 22.75 44V27.0177L12.8839 36.8839C12.3957 37.372 11.6043 37.372 11.1161 36.8839C10.628 36.3957 10.628 35.6042 11.1161 35.1161L22.2322 24L11.1161 12.8839C10.628 12.3957 10.628 11.6042 11.1161 11.1161C11.6043 10.6279 12.3957 10.6279 12.8839 11.1161L22.75 20.9822V3.99998C22.75 3.4944 23.0546 3.0386 23.5216 2.84513ZM25.25 27.0177L32.2322 34L25.25 40.9822V27.0177ZM25.25 20.9822V7.01774L32.2322 14L25.25 20.9822Z" fill="#005D92"/>
</svg>
