<svg width="48" height="48" viewBox="0 0 48 48" fill="none" xmlns="http://www.w3.org/2000/svg">
<path fill-rule="evenodd" clip-rule="evenodd" d="M24.8839 3.11615C24.5264 2.75866 23.9887 2.65171 23.5216 2.84519C23.0546 3.03866 22.75 3.49446 22.75 4.00004V18.5C22.75 19.1904 23.3096 19.75 24 19.75C24.6904 19.75 25.25 19.1904 25.25 18.5V7.0178L32.2322 14L25.9733 20.2589C25.4852 20.7471 25.4852 21.5385 25.9733 22.0267C26.4615 22.5149 27.253 22.5149 27.7411 22.0267L34.8839 14.8839C35.372 14.3958 35.372 13.6043 34.8839 13.1162L24.8839 3.11615ZM11.1104 12.8782L9.11612 10.8839C8.62796 10.3957 8.62796 9.60427 9.11612 9.11612C9.60427 8.62796 10.3957 8.62796 10.8839 9.11612L12.8839 11.1162L24.877 23.1093L24.8904 23.1226L34.8839 33.1162L38.8839 37.1161C39.372 37.6043 39.372 38.3957 38.8839 38.8839C38.3957 39.372 37.6043 39.372 37.1161 38.8839L34 35.7678L24.8839 44.8839C24.5264 45.2414 23.9887 45.3484 23.5216 45.1549C23.0546 44.9614 22.75 44.5056 22.75 44V27.0178L12.8839 36.8839C12.3957 37.3721 11.6043 37.3721 11.1161 36.8839C10.628 36.3958 10.628 35.6043 11.1161 35.1162L22.2322 24L11.1161 12.8839C11.1142 12.882 11.1123 12.8801 11.1104 12.8782ZM25.25 27.0178V40.9823L32.2322 34L25.25 27.0178Z" fill="#005D92"/>
</svg>
