<svg width="48" height="48" viewBox="0 0 48 48" fill="none" xmlns="http://www.w3.org/2000/svg">
<path fill-rule="evenodd" clip-rule="evenodd" d="M36 1.75C31.4437 1.75 27.75 5.44365 27.75 10C27.75 11.5533 28.1805 13.0099 28.9293 14.2527L28.9462 14.2808L33.4043 20.872C33.9872 21.7337 34.9597 22.25 36 22.25C37.0403 22.25 38.0128 21.7337 38.5957 20.872L43.0538 14.2808L43.0707 14.2527C43.8195 13.0099 44.25 11.5533 44.25 10C44.25 5.44365 40.5564 1.75 36 1.75ZM30.25 10C30.25 6.82436 32.8244 4.25 36 4.25C39.1756 4.25 41.75 6.82436 41.75 10C41.75 11.0748 41.4563 12.0774 40.9453 12.9357L36.5248 19.4714C36.407 19.6456 36.2104 19.75 36 19.75C35.7896 19.75 35.593 19.6456 35.4752 19.4714L31.0547 12.9357C30.5437 12.0773 30.25 11.0748 30.25 10ZM12.8528 9.47457C13.3629 8.70953 14.2215 8.25 15.141 8.25H24.0002C24.6906 8.25 25.2502 7.69036 25.2502 7C25.2502 6.30964 24.6906 5.75 24.0002 5.75H15.141C13.3856 5.75 11.7464 6.62728 10.7727 8.08782L5.96017 15.3066C5.70446 15.6902 5.68062 16.1834 5.89814 16.5898C6.11567 16.9963 6.53924 17.25 7.00023 17.25H26C26.6904 17.25 27.25 16.6904 27.25 16C27.25 15.3096 26.6904 14.75 26 14.75H25.2502V12C25.2502 11.3096 24.6906 10.75 24.0002 10.75C23.3099 10.75 22.7502 11.3096 22.7502 12V14.75H9.33588L12.8528 9.47457ZM7 20.75C6.30964 20.75 5.75 21.3096 5.75 22C5.75 22.6904 6.30964 23.25 7 23.25H7.01C7.70036 23.25 8.26 22.6904 8.26 22C8.26 21.3096 7.70036 20.75 7.01 20.75H7ZM42.2503 24C42.2503 23.3096 41.6906 22.75 41.0003 22.75C40.3099 22.75 39.7503 23.3096 39.7503 24V37C39.7503 38.5188 38.519 39.75 37.0003 39.75H11C9.48124 39.75 8.25002 38.5188 8.25002 37V26.5C8.25002 25.8096 7.69038 25.25 7.00002 25.25C6.30966 25.25 5.75002 25.8096 5.75002 26.5V37C5.75002 39.8995 8.10052 42.25 11 42.25H37.0003C39.8997 42.25 42.2503 39.8995 42.2503 37V24ZM33.5 10C33.5 8.61929 34.6193 7.5 36 7.5C37.3807 7.5 38.5 8.61929 38.5 10C38.5 11.3807 37.3807 12.5 36 12.5C34.6193 12.5 33.5 11.3807 33.5 10ZM16 20.75C14.2051 20.75 12.75 22.2051 12.75 24C12.75 25.7949 14.2051 27.25 16 27.25H19.5C21.2949 27.25 22.75 25.7949 22.75 24C22.75 22.2051 21.2949 20.75 19.5 20.75H16ZM15.25 24C15.25 23.5858 15.5858 23.25 16 23.25H19.5C19.9142 23.25 20.25 23.5858 20.25 24C20.25 24.4142 19.9142 24.75 19.5 24.75H16C15.5858 24.75 15.25 24.4142 15.25 24Z" fill="#005D92"/>
</svg>
