<svg width="48" height="48" viewBox="0 0 48 48" fill="none" xmlns="http://www.w3.org/2000/svg">
<path fill-rule="evenodd" clip-rule="evenodd" d="M38 1.75C34.5482 1.75 31.75 4.54822 31.75 8C31.75 11.4518 34.5482 14.25 38 14.25C41.4518 14.25 44.25 11.4518 44.25 8C44.25 4.54822 41.4518 1.75 38 1.75ZM34.25 8C34.25 5.92893 35.9289 4.25 38 4.25C40.0711 4.25 41.75 5.92893 41.75 8C41.75 10.0711 40.0711 11.75 38 11.75C35.9289 11.75 34.25 10.0711 34.25 8ZM13.4408 2.882C14.0582 2.57326 14.8091 2.82354 15.1178 3.44101L16.6028 6.41106C16.6137 6.43132 16.624 6.45191 16.6337 6.47282L35.1178 43.441C35.4266 44.0585 35.1763 44.8093 34.5588 45.1181C33.9413 45.4268 33.1905 45.1765 32.8818 44.559L31.7272 42.25H11C8.1005 42.25 5.75 39.8995 5.75 37V26.5C5.75 25.8096 6.30964 25.25 7 25.25C7.69036 25.25 8.25 25.8096 8.25 26.5V37C8.25 38.5188 9.48122 39.75 11 39.75H30.4772L19.2272 17.25H7.00022C6.53922 17.25 6.11565 16.9963 5.89812 16.5898C5.6806 16.1834 5.70444 15.6902 5.96015 15.3066L10.7727 8.08782C11.4516 7.06948 12.454 6.33468 13.5938 5.98309L12.8818 4.55905C12.573 3.94157 12.8233 3.19073 13.4408 2.882ZM12.8528 9.47457C13.2881 8.82158 13.9774 8.39116 14.7418 8.27909L17.9772 14.75H9.33586L12.8528 9.47457ZM19.75 7C19.75 6.30964 20.3096 5.75 21 5.75H28.5C29.1904 5.75 29.75 6.30964 29.75 7C29.75 7.69036 29.1904 8.25 28.5 8.25H21C20.3096 8.25 19.75 7.69036 19.75 7ZM24.0002 10.25C24.6906 10.25 25.2502 10.8096 25.2502 11.5L25.2501 13.7052L25.7725 14.75H32.5C33.1904 14.75 33.75 15.3096 33.75 16C33.75 16.6904 33.1904 17.25 32.5 17.25H25C24.5265 17.25 24.0937 16.9825 23.882 16.559L22.882 14.559C22.7951 14.3853 22.7499 14.1937 22.75 13.9995L22.7502 11.5C22.7502 10.8096 23.3099 10.25 24.0002 10.25ZM41.0002 16.25C41.6906 16.25 42.2502 16.8096 42.2502 17.5V38C42.2502 40.3472 40.3475 42.25 38.0002 42.25H37.0001C36.3098 42.25 35.7501 41.6904 35.7501 41C35.7501 40.3096 36.3098 39.75 37.0001 39.75H38.0002C38.9667 39.75 39.7502 38.9665 39.7502 38V17.5C39.7502 16.8096 40.3099 16.25 41.0002 16.25ZM5.75 22C5.75 21.3096 6.30964 20.75 7 20.75H7.01C7.70036 20.75 8.26 21.3096 8.26 22C8.26 22.6904 7.70036 23.25 7.01 23.25H7C6.30964 23.25 5.75 22.6904 5.75 22ZM27.25 22C27.25 21.3096 27.8096 20.75 28.5 20.75H32.5002C34.2951 20.75 35.7502 22.2051 35.7502 24C35.7502 25.7949 34.2951 27.25 32.5002 27.25H30.7502C30.0599 27.25 29.5002 26.6904 29.5002 26C29.5002 25.3096 30.0599 24.75 30.7502 24.75H32.5002C32.9144 24.75 33.2502 24.4142 33.2502 24C33.2502 23.5858 32.9144 23.25 32.5002 23.25H28.5C27.8096 23.25 27.25 22.6904 27.25 22Z" fill="#005D92"/>
</svg>
