<svg width="48" height="48" viewBox="0 0 48 48" fill="none" xmlns="http://www.w3.org/2000/svg">
<path fill-rule="evenodd" clip-rule="evenodd" d="M15.141 8.25C14.2215 8.25 13.3629 8.70953 12.8528 9.47457L9.33588 14.75H13.5002C14.1906 14.75 14.7502 15.3096 14.7502 16C14.7502 16.6904 14.1906 17.25 13.5002 17.25H7.00023C6.53924 17.25 6.11567 16.9963 5.89814 16.5898C5.68062 16.1834 5.70446 15.6902 5.96017 15.3066L10.7727 8.08782C11.7464 6.62728 13.3856 5.75 15.141 5.75H32.8595C34.6149 5.75 36.2541 6.62728 37.2278 8.08782L42.0403 15.3066C42.1772 15.512 42.2503 15.7532 42.2503 16V37C42.2503 39.8995 39.8997 42.25 37.0003 42.25H11C8.10052 42.25 5.75002 39.8995 5.75002 37V26.5C5.75002 25.8096 6.30966 25.25 7.00002 25.25C7.69038 25.25 8.25002 25.8096 8.25002 26.5V37C8.25002 38.5188 9.48124 39.75 11 39.75H37.0003C38.519 39.75 39.7503 38.5188 39.7503 37V17.25H34.5C33.8096 17.25 33.25 16.6904 33.25 16C33.25 15.3096 33.8096 14.75 34.5 14.75H38.6646L35.1476 9.47457C34.6376 8.70953 33.779 8.25 32.8595 8.25H25.2502V12C25.2502 12.6904 24.6906 13.25 24.0002 13.25C23.3099 13.25 22.7502 12.6904 22.7502 12V8.25H15.141ZM5.75 22C5.75 21.3096 6.30964 20.75 7 20.75H7.01C7.70036 20.75 8.26 21.3096 8.26 22C8.26 22.6904 7.70036 23.25 7.01 23.25H7C6.30964 23.25 5.75 22.6904 5.75 22ZM23.9596 18.25C22.4631 18.25 21.25 19.4631 21.25 20.9596V21C21.25 21.6904 20.6904 22.25 20 22.25C19.3096 22.25 18.75 21.6904 18.75 21V20.9596C18.75 18.0824 21.0824 15.75 23.9596 15.75H24.2918C27.0453 15.75 29.25 18.0198 29.25 20.743C29.25 22.5787 28.2155 24.2898 26.559 25.118C25.7568 25.5192 25.25 26.3391 25.25 27.2361V29C25.25 29.6904 24.6904 30.25 24 30.25C23.3096 30.25 22.75 29.6904 22.75 29V27.2361C22.75 25.3922 23.7918 23.7066 25.441 22.882C26.236 22.4845 26.75 21.6481 26.75 20.743C26.75 19.3701 25.6343 18.25 24.2918 18.25H23.9596ZM24 32.75C23.3096 32.75 22.75 33.3096 22.75 34C22.75 34.6904 23.3096 35.25 24 35.25H24.01C24.7004 35.25 25.26 34.6904 25.26 34C25.26 33.3096 24.7004 32.75 24.01 32.75H24Z" fill="#005D92"/>
</svg>
