<svg width="48" height="48" viewBox="0 0 48 48" fill="none" xmlns="http://www.w3.org/2000/svg">
<path fill-rule="evenodd" clip-rule="evenodd" d="M38 1.75C34.5482 1.75 31.75 4.54822 31.75 8C31.75 11.4518 34.5482 14.25 38 14.25C41.4518 14.25 44.25 11.4518 44.25 8C44.25 4.54822 41.4518 1.75 38 1.75ZM34.25 8C34.25 5.92893 35.9289 4.25 38 4.25C40.0711 4.25 41.75 5.92893 41.75 8C41.75 10.0711 40.0711 11.75 38 11.75C35.9289 11.75 34.25 10.0711 34.25 8ZM12.8528 9.47457C13.3628 8.70953 14.2215 8.25 15.141 8.25H28.5C29.1904 8.25 29.75 7.69036 29.75 7C29.75 6.30964 29.1904 5.75 28.5 5.75H15.141C13.3856 5.75 11.7464 6.62728 10.7727 8.08782L5.96015 15.3066C5.70444 15.6902 5.6806 16.1834 5.89812 16.5898C6.11565 16.9963 6.53922 17.25 7.00022 17.25H32.5C33.1904 17.25 33.75 16.6904 33.75 16C33.75 15.3096 33.1904 14.75 32.5 14.75H25.2502V11C25.2502 10.3096 24.6906 9.75 24.0002 9.75C23.3099 9.75 22.7502 10.3096 22.7502 11V14.75H9.33586L12.8528 9.47457ZM42.2502 17.5C42.2502 16.8096 41.6906 16.25 41.0002 16.25C40.3099 16.25 39.7502 16.8096 39.7502 17.5V37C39.7502 38.5188 38.519 39.75 37.0002 39.75H11C9.48122 39.75 8.25 38.5188 8.25 37V26.5C8.25 25.8096 7.69036 25.25 7 25.25C6.30964 25.25 5.75 25.8096 5.75 26.5V37C5.75 39.8995 8.10051 42.25 11 42.25H37.0002C39.8997 42.25 42.2502 39.8995 42.2502 37V17.5ZM7 20.75C6.30964 20.75 5.75 21.3096 5.75 22C5.75 22.6904 6.30964 23.25 7 23.25H7.01C7.70036 23.25 8.26 22.6904 8.26 22C8.26 21.3096 7.70036 20.75 7.01 20.75H7ZM29.0002 20.75C27.2053 20.75 25.7502 22.2051 25.7502 24C25.7502 25.7949 27.2053 27.25 29.0002 27.25H32.5002C34.2951 27.25 35.7502 25.7949 35.7502 24C35.7502 22.2051 34.2951 20.75 32.5002 20.75H29.0002ZM28.2502 24C28.2502 23.5858 28.586 23.25 29.0002 23.25H32.5002C32.9144 23.25 33.2502 23.5858 33.2502 24C33.2502 24.4142 32.9144 24.75 32.5002 24.75H29.0002C28.586 24.75 28.2502 24.4142 28.2502 24Z" fill="#005D92"/>
</svg>
