<svg width="48" height="48" viewBox="0 0 48 48" fill="none" xmlns="http://www.w3.org/2000/svg">
<path fill-rule="evenodd" clip-rule="evenodd" d="M10.7727 8.08782C11.7464 6.62728 13.3856 5.75 15.141 5.75H32.8595C34.6149 5.75 36.2541 6.62728 37.2278 8.08782L41.2006 14.047C41.885 15.0737 42.2503 16.28 42.2503 17.5139V37C42.2503 39.8995 39.8997 42.25 37.0003 42.25H11C8.10052 42.25 5.75002 39.8995 5.75002 37V26.5C5.75002 25.8096 6.30966 25.25 7.00002 25.25C7.69038 25.25 8.25002 25.8096 8.25002 26.5V37C8.25002 38.5188 9.48124 39.75 11 39.75H37.0003C38.519 39.75 39.7503 38.5188 39.7503 37V17.5139C39.7503 16.7735 39.5311 16.0498 39.1204 15.4338L35.1476 9.47457C34.6376 8.70953 33.779 8.25 32.8595 8.25H15.141C14.2215 8.25 13.3629 8.70953 12.8528 9.47457L9.33588 14.75H22.7502V12C22.7502 11.3096 23.3099 10.75 24.0002 10.75C24.6906 10.75 25.2502 11.3096 25.2502 12V14.75H34.5002C35.1906 14.75 35.7502 15.3096 35.7502 16C35.7502 16.6904 35.1906 17.25 34.5002 17.25H7.00023C6.53924 17.25 6.11567 16.9963 5.89814 16.5898C5.68062 16.1834 5.70446 15.6902 5.96017 15.3066L10.7727 8.08782ZM5.75 22C5.75 21.3096 6.30964 20.75 7 20.75H7.01C7.70036 20.75 8.26 21.3096 8.26 22C8.26 22.6904 7.70036 23.25 7.01 23.25H7C6.30964 23.25 5.75 22.6904 5.75 22ZM25.7502 24C25.7502 22.2051 27.2053 20.75 29.0002 20.75H32.5002C34.2952 20.75 35.7502 22.2051 35.7502 24C35.7502 25.7949 34.2952 27.25 32.5002 27.25H29.0002C27.2053 27.25 25.7502 25.7949 25.7502 24ZM29.0002 23.25C28.586 23.25 28.2502 23.5858 28.2502 24C28.2502 24.4142 28.586 24.75 29.0002 24.75H32.5002C32.9144 24.75 33.2502 24.4142 33.2502 24C33.2502 23.5858 32.9144 23.25 32.5002 23.25H29.0002Z" fill="#005D92"/>
</svg>
