<svg width="48" height="48" viewBox="0 0 48 48" fill="none" xmlns="http://www.w3.org/2000/svg">
<path fill-rule="evenodd" clip-rule="evenodd" d="M16 10.25C15.5858 10.25 15.25 10.5858 15.25 11V13C15.25 13.4142 15.5858 13.75 16 13.75C16.4142 13.75 16.75 13.4142 16.75 13V11C16.75 10.5858 16.4142 10.25 16 10.25ZM19.2405 10.75C19.1129 9.0719 17.7108 7.75 16 7.75C14.2892 7.75 12.8871 9.0719 12.7595 10.75H12C9.10051 10.75 6.75 13.1005 6.75 16V19C6.75 20.7949 8.20507 22.25 10 22.25H35.5C36.1904 22.25 36.75 21.6904 36.75 21C36.75 20.3096 36.1904 19.75 35.5 19.75H10C9.58579 19.75 9.25 19.4142 9.25 19V16C9.25 14.4812 10.4812 13.25 12 13.25H12.7595C12.8871 14.9281 14.2892 16.25 16 16.25C17.7108 16.25 19.1129 14.9281 19.2405 13.25H28.7595C28.8871 14.9281 30.2892 16.25 32 16.25C33.7108 16.25 35.1129 14.9281 35.2405 13.25L36 13.25C37.5188 13.25 38.75 14.4812 38.75 16V34C38.75 35.5188 37.5188 36.75 36 36.75H12C10.4812 36.75 9.25 35.5188 9.25 34V30C9.25 29.3096 8.69036 28.75 8 28.75C7.30964 28.75 6.75 29.3096 6.75 30V34C6.75 36.8995 9.10051 39.25 12 39.25H36C38.8995 39.25 41.25 36.8995 41.25 34V16C41.25 13.1005 38.8995 10.75 36 10.75L35.2405 10.75C35.1129 9.07189 33.7108 7.75 32 7.75C30.2892 7.75 28.8871 9.0719 28.7595 10.75H19.2405ZM32 10.25C31.5858 10.25 31.25 10.5858 31.25 11V13C31.25 13.4142 31.5858 13.75 32 13.75C32.4142 13.75 32.75 13.4142 32.75 13V11C32.75 10.5858 32.4142 10.25 32 10.25ZM8 24.74C8.69036 24.74 9.25 25.2996 9.25 25.99V26C9.25 26.6904 8.69036 27.25 8 27.25C7.30964 27.25 6.75 26.6904 6.75 26V25.99C6.75 25.2996 7.30964 24.74 8 24.74Z" fill="#005D92"/>
</svg>
