<svg width="48" height="48" viewBox="0 0 48 48" fill="none" xmlns="http://www.w3.org/2000/svg">
<path fill-rule="evenodd" clip-rule="evenodd" d="M15.1178 3.44101C14.8091 2.82354 14.0582 2.57326 13.4408 2.882C12.8233 3.19073 12.573 3.94157 12.8818 4.55905L16.7152 12.226C16.6193 12.5298 16.3353 12.75 15.9999 12.75H10C7.10055 12.75 4.75005 15.1005 4.75003 18L4.75002 19.4931L4.75 19.5V22C4.75 22.6904 5.30964 23.25 5.99999 23.25C6.69035 23.25 7.24999 22.6904 7.25 22L7.25003 18C7.25004 16.4812 8.48125 15.25 10 15.25H15.9999C16.716 15.25 17.3781 15.0184 17.9152 14.6259L19.9952 18.7859C17.4642 20.1939 15.75 22.8955 15.75 26C15.75 30.5563 19.4437 34.25 24 34.25C25.1985 34.25 26.3393 33.9938 27.3687 33.5328L29.9772 38.75H10.0099C8.49108 38.75 7.25987 37.5188 7.25987 36V31C7.25987 30.3096 6.70022 29.75 6.00987 29.75C5.31951 29.75 4.75987 30.3096 4.75987 31V36C4.75987 38.8995 7.11037 41.25 10.0099 41.25H31.2272L32.8818 44.559C33.1905 45.1765 33.9413 45.4268 34.5588 45.1181C35.1763 44.8093 35.4266 44.0585 35.1178 43.441L15.1178 3.44101ZM26.2492 31.2939L21.1147 21.0249C19.4007 22.0211 18.25 23.8773 18.25 26C18.25 29.1756 20.8244 31.75 24 31.75C24.7995 31.75 25.5591 31.5875 26.2492 31.2939ZM20.5 6.75C19.8096 6.75 19.25 7.30964 19.25 8C19.25 8.69036 19.8096 9.25 20.5 9.25H28.7499V12C28.7499 13.7949 30.2049 15.25 31.9999 15.25H37.9999C39.5187 15.25 40.7499 16.4812 40.7499 18V36C40.7499 37.5188 39.5187 38.75 37.9999 38.75H37C36.3096 38.75 35.75 39.3096 35.75 40C35.75 40.6904 36.3096 41.25 37 41.25H37.9999C40.8994 41.25 43.2499 38.8995 43.2499 36V18C43.2499 15.1005 40.8994 12.75 37.9999 12.75H31.9999C31.5857 12.75 31.2499 12.4142 31.2499 12V9C31.2499 7.75736 30.2425 6.75 28.9999 6.75H20.5ZM27.7467 18.6482C27.1319 18.3343 26.379 18.5783 26.0651 19.1931C25.7512 19.808 25.9952 20.5609 26.61 20.8748C28.4764 21.8276 29.75 23.7662 29.75 26C29.75 26.6904 30.3096 27.25 31 27.25C31.6904 27.25 32.25 26.6904 32.25 26C32.25 22.7906 30.4171 20.0114 27.7467 18.6482ZM6 25.75C5.30964 25.75 4.75 26.3096 4.75 27C4.75 27.6904 5.30964 28.25 6 28.25H6.00987C6.70022 28.25 7.25987 27.6904 7.25987 27C7.25987 26.3096 6.70022 25.75 6.00987 25.75H6Z" fill="#005D92"/>
</svg>
