<svg width="48" height="48" viewBox="0 0 48 48" fill="none" xmlns="http://www.w3.org/2000/svg">
<path fill-rule="evenodd" clip-rule="evenodd" d="M19.2499 9.25V12C19.2499 13.7949 17.7948 15.25 15.9999 15.25H10C8.48125 15.25 7.25004 16.4812 7.25003 18L7.25 22C7.24999 22.6904 6.69035 23.25 5.99999 23.25C5.30964 23.25 4.75 22.6904 4.75 22V19.5C4.75 19.4977 4.75001 19.4954 4.75002 19.4931L4.75003 18C4.75005 15.1005 7.10055 12.75 10 12.75H15.9999C16.4141 12.75 16.7499 12.4142 16.7499 12V9C16.7499 7.75736 17.7572 6.75 18.9999 6.75H28.9999C30.2425 6.75 31.2499 7.75736 31.2499 9V12C31.2499 12.4142 31.5857 12.75 31.9999 12.75H37.9999C40.8994 12.75 43.2499 15.1005 43.2499 18V36C43.2499 38.8995 40.8994 41.25 37.9999 41.25H10.0099C7.11037 41.25 4.75987 38.8995 4.75987 36V31C4.75987 30.3096 5.31951 29.75 6.00987 29.75C6.70022 29.75 7.25987 30.3096 7.25987 31V36C7.25987 37.5188 8.49108 38.75 10.0099 38.75H37.9999C39.5187 38.75 40.7499 37.5188 40.7499 36V18C40.7499 16.4812 39.5187 15.25 37.9999 15.25H31.9999C30.2049 15.25 28.7499 13.7949 28.7499 12V9.25H19.2499ZM23.9999 20.25C20.8242 20.25 18.2499 22.8244 18.2499 26C18.2499 29.1756 20.8242 31.75 23.9999 31.75C27.1755 31.75 29.7499 29.1756 29.7499 26C29.7499 22.8244 27.1755 20.25 23.9999 20.25ZM15.7499 26C15.7499 21.4437 19.4435 17.75 23.9999 17.75C28.5562 17.75 32.2499 21.4437 32.2499 26C32.2499 30.5563 28.5562 34.25 23.9999 34.25C19.4435 34.25 15.7499 30.5563 15.7499 26ZM4.75 27C4.75 26.3096 5.30964 25.75 6 25.75H6.00987C6.70022 25.75 7.25987 26.3096 7.25987 27C7.25987 27.6904 6.70022 28.25 6.00987 28.25H6C5.30964 28.25 4.75 27.6904 4.75 27Z" fill="#005D92"/>
</svg>
