<svg width="48" height="48" viewBox="0 0 48 48" fill="none" xmlns="http://www.w3.org/2000/svg">
<path fill-rule="evenodd" clip-rule="evenodd" d="M2.75 17C2.75 14.1005 5.10051 11.75 8 11.75H30.4042C32.1269 11.75 33.7401 12.5952 34.7207 14.0116L37.7906 18.4459L40.3953 19.3141C41.0502 19.5325 41.4042 20.2404 41.1859 20.8953C40.9675 21.5502 40.2596 21.9042 39.6047 21.6859L36.7971 20.75H26.5C24.7051 20.75 23.25 19.2949 23.25 17.5V17C23.25 16.3096 23.8096 15.75 24.5 15.75C25.1904 15.75 25.75 16.3096 25.75 17V17.5C25.75 17.9142 26.0858 18.25 26.5 18.25H34.6143L32.6652 15.4347C32.1516 14.6927 31.3066 14.25 30.4042 14.25H8C6.48122 14.25 5.25 15.4812 5.25 17V29C5.25 30.5188 6.48122 31.75 8 31.75H9.9368C10.4706 30.0128 12.0878 28.75 14 28.75C15.9122 28.75 17.5294 30.0128 18.0632 31.75H31.9368C32.4706 30.0128 34.0878 28.75 36 28.75C37.9122 28.75 39.5294 30.0128 40.0632 31.75H41.5808C43.3251 31.75 44.6287 30.1468 44.273 28.4391L44.0263 27.2549C43.8855 26.5791 44.3192 25.9171 44.9951 25.7763C45.6709 25.6355 46.3329 26.0692 46.4737 26.7451L46.7204 27.9292C47.3996 31.1894 44.9109 34.25 41.5808 34.25H40.0632C39.5294 35.9872 37.9122 37.25 36 37.25C34.0878 37.25 32.4706 35.9872 31.9368 34.25H18.0632C17.5294 35.9872 15.9122 37.25 14 37.25C12.0878 37.25 10.4706 35.9872 9.9368 34.25H8C5.1005 34.25 2.75 31.8995 2.75 29V17ZM44 21.74C44.6904 21.74 45.25 22.2996 45.25 22.99V23C45.25 23.6904 44.6904 24.25 44 24.25C43.3096 24.25 42.75 23.6904 42.75 23V22.99C42.75 22.2996 43.3096 21.74 44 21.74ZM14 31.25C13.0335 31.25 12.25 32.0335 12.25 33C12.25 33.9665 13.0335 34.75 14 34.75C14.9665 34.75 15.75 33.9665 15.75 33C15.75 32.0335 14.9665 31.25 14 31.25ZM34.25 33C34.25 32.0335 35.0335 31.25 36 31.25C36.9665 31.25 37.75 32.0335 37.75 33C37.75 33.9665 36.9665 34.75 36 34.75C35.0335 34.75 34.25 33.9665 34.25 33Z" fill="#005D92"/>
</svg>
