<svg width="48" height="48" viewBox="0 0 48 48" fill="none" xmlns="http://www.w3.org/2000/svg">
<path fill-rule="evenodd" clip-rule="evenodd" d="M4.75 24C4.75 13.3685 13.3685 4.75 24 4.75C34.6315 4.75 43.25 13.3685 43.25 24C43.25 26.7002 42.6933 29.2737 41.6872 31.6093C41.4491 32.1622 41.3474 32.7162 41.3999 33.2313L42.2802 41.8733C42.3209 42.2726 42.1673 42.6672 41.8675 42.9339C41.5676 43.2007 41.1578 43.3072 40.766 43.2204L33.3179 41.5686C32.7081 41.4334 32.0276 41.5163 31.3545 41.7948C29.0869 42.733 26.6023 43.25 24 43.25C13.3685 43.25 4.75 34.6315 4.75 24ZM24 7.25C14.7492 7.25 7.25 14.7492 7.25 24C7.25 33.2508 14.7492 40.75 24 40.75C26.2686 40.75 28.4289 40.2997 30.3987 39.4847C31.4451 39.0518 32.6521 38.8603 33.8591 39.1279L39.6177 40.405L38.9127 33.4847C38.809 32.466 39.0195 31.4832 39.3912 30.6203C40.2652 28.5912 40.75 26.3538 40.75 24C40.75 14.7492 33.2508 7.25 24 7.25ZM18.25 24C18.25 22.7574 17.2426 21.75 16 21.75C14.7574 21.75 13.75 22.7574 13.75 24C13.75 25.2426 14.7574 26.25 16 26.25C17.2426 26.25 18.25 25.2426 18.25 24ZM24 21.75C22.7574 21.75 21.75 22.7574 21.75 24C21.75 25.2426 22.7574 26.25 24 26.25C25.2426 26.25 26.25 25.2426 26.25 24C26.25 22.7574 25.2426 21.75 24 21.75ZM29.75 24C29.75 22.7574 30.7574 21.75 32 21.75C33.2426 21.75 34.25 22.7574 34.25 24C34.25 25.2426 33.2426 26.25 32 26.25C30.7574 26.25 29.75 25.2426 29.75 24Z" fill="#005D92"/>
</svg>
