<svg width="48" height="48" viewBox="0 0 48 48" fill="none" xmlns="http://www.w3.org/2000/svg">
<path fill-rule="evenodd" clip-rule="evenodd" d="M7.25 24C7.25 14.7492 14.7492 7.25 24 7.25C33.2508 7.25 40.75 14.7492 40.75 24C40.75 33.2508 33.2508 40.75 24 40.75C14.7492 40.75 7.25 33.2508 7.25 24ZM24 4.75C13.3685 4.75 4.75 13.3685 4.75 24C4.75 34.6315 13.3685 43.25 24 43.25C34.6315 43.25 43.25 34.6315 43.25 24C43.25 13.3685 34.6315 4.75 24 4.75ZM25.5 10C25.5 9.17157 24.8284 8.5 24 8.5C23.1716 8.5 22.5 9.17157 22.5 10V10.0104C22.5 10.8388 23.1716 11.5104 24 11.5104C24.8284 11.5104 25.5 10.8388 25.5 10.0104V10ZM11.5 23.9948C11.5 23.1664 10.8284 22.4948 10 22.4948C9.17157 22.4948 8.5 23.1664 8.5 23.9948V24.0052C8.5 24.8336 9.17157 25.5052 10 25.5052C10.8284 25.5052 11.5 24.8336 11.5 24.0052V23.9948ZM39.5 23.9948C39.5 23.1664 38.8284 22.4948 38 22.4948C37.1716 22.4948 36.5 23.1664 36.5 23.9948V24.0052C36.5 24.8336 37.1716 25.5052 38 25.5052C38.8284 25.5052 39.5 24.8336 39.5 24.0052V23.9948ZM25.5 37.9896C25.5 37.1612 24.8284 36.4896 24 36.4896C23.1716 36.4896 22.5 37.1612 22.5 37.9896V38C22.5 38.8284 23.1716 39.5 24 39.5C24.8284 39.5 25.5 38.8284 25.5 38V37.9896ZM31.8839 16.1162C32.2524 16.4846 32.3536 17.0429 32.138 17.5173L27.763 27.1423C27.6379 27.4174 27.4174 27.6379 27.1423 27.763L17.5173 32.138C17.0429 32.3536 16.4846 32.2524 16.1162 31.8839C15.7477 31.5155 15.6465 30.9571 15.8621 30.4828L20.2371 20.8578C20.3621 20.5826 20.5826 20.3621 20.8578 20.2371L30.4828 15.8621C30.9571 15.6465 31.5155 15.7477 31.8839 16.1162ZM21.694 23.6941L19.5173 28.4827L24.306 26.3061L21.694 23.6941ZM23.3746 21.8392L28.4827 19.5173L26.1609 24.6255L23.3746 21.8392Z" fill="#005D92"/>
</svg>
