<svg width="48" height="48" viewBox="0 0 48 48" fill="none" xmlns="http://www.w3.org/2000/svg">
<path fill-rule="evenodd" clip-rule="evenodd" d="M13 4.25C10.3766 4.25 8.25 6.37665 8.25 9V35.75H14C14.6904 35.75 15.25 36.3096 15.25 37C15.25 37.6904 14.6904 38.25 14 38.25H7C6.30964 38.25 5.75 37.6904 5.75 37V9C5.75 4.99594 8.99594 1.75 13 1.75H36C40.0041 1.75 43.25 4.99594 43.25 9V15C43.25 15.6904 42.6904 16.25 42 16.25H31.25V21C31.25 21.6904 30.6904 22.25 30 22.25C29.3096 22.25 28.75 21.6904 28.75 21V9C28.75 7.18308 29.4184 5.52227 30.5226 4.25H13ZM36 4.25C33.3766 4.25 31.25 6.37665 31.25 9V13.75H40.75V9C40.75 6.37665 38.6234 4.25 36 4.25ZM13.75 11.5C13.75 9.70507 15.2051 8.25 17 8.25H20C21.7949 8.25 23.25 9.70507 23.25 11.5C23.25 13.2949 21.7949 14.75 20 14.75H17C15.2051 14.75 13.75 13.2949 13.75 11.5ZM17 10.75C16.5858 10.75 16.25 11.0858 16.25 11.5C16.25 11.9142 16.5858 12.25 17 12.25H20C20.4142 12.25 20.75 11.9142 20.75 11.5C20.75 11.0858 20.4142 10.75 20 10.75H17ZM11.75 19C11.75 18.3096 12.3096 17.75 13 17.75H13.01C13.7004 17.75 14.26 18.3096 14.26 19C14.26 19.6904 13.7004 20.25 13.01 20.25H13C12.3096 20.25 11.75 19.6904 11.75 19ZM15.75 19C15.75 18.3096 16.3096 17.75 17 17.75H22C22.6904 17.75 23.25 18.3096 23.25 19C23.25 19.6904 22.6904 20.25 22 20.25H17C16.3096 20.25 15.75 19.6904 15.75 19ZM11.75 24C11.75 23.3096 12.3096 22.75 13 22.75H24C24.6904 22.75 25.25 23.3096 25.25 24C25.25 24.6904 24.6904 25.25 24 25.25H13C12.3096 25.25 11.75 24.6904 11.75 24ZM11.75 29C11.75 28.3096 12.3096 27.75 13 27.75H18C18.6904 27.75 19.25 28.3096 19.25 29C19.25 29.6904 18.6904 30.25 18 30.25H13C12.3096 30.25 11.75 29.6904 11.75 29Z" fill="#005D92"/>
<path fill-rule="evenodd" clip-rule="evenodd" d="M41.1161 20.8839C40.2236 19.9913 38.7764 19.9913 37.8839 20.8839L36.2678 22.5L39.5 25.7322L41.1161 24.1161C42.0087 23.2236 42.0087 21.7765 41.1161 20.8839ZM37.7322 27.5L34.5 24.2678L17.7678 41L21 44.2322L37.7322 27.5ZM17.9822 44.75L17.25 44.0178V44.75H17.9822ZM36.1161 19.1161C37.985 17.2473 41.015 17.2473 42.8839 19.1161C44.7528 20.985 44.7528 24.015 42.8839 25.8839L21.8839 46.8839C21.6495 47.1183 21.3315 47.25 21 47.25H16C15.3096 47.25 14.75 46.6904 14.75 46V41C14.75 40.6685 14.8817 40.3505 15.1161 40.1161L36.1161 19.1161Z" fill="#005D92"/>
</svg>
