<svg width="48" height="48" viewBox="0 0 48 48" fill="none" xmlns="http://www.w3.org/2000/svg">
<path fill-rule="evenodd" clip-rule="evenodd" d="M11.9999 8.75C9.10043 8.75 6.74992 11.1005 6.74992 14V19C6.74992 19.6904 7.30957 20.25 7.99992 20.25C8.69028 20.25 9.24992 19.6904 9.24992 19V14C9.24992 12.4812 10.4811 11.25 11.9999 11.25H35.9999C37.5187 11.25 38.7499 12.4812 38.7499 14V32.75H31C30.3096 32.75 29.75 33.3096 29.75 34C29.75 34.6904 30.3096 35.25 31 35.25H42C42.4142 35.25 42.75 35.5858 42.75 36C42.75 36.4142 42.4142 36.75 42 36.75H6C5.58579 36.75 5.25 36.4142 5.25 36C5.25 35.5858 5.58579 35.25 6 35.25H17C17.6904 35.25 18.25 34.6904 18.25 34C18.25 33.3096 17.6904 32.75 17 32.75H9.24992V28C9.24992 27.3096 8.69028 26.75 7.99992 26.75C7.30957 26.75 6.74992 27.3096 6.74992 28V32.75H6C4.20507 32.75 2.75 34.2051 2.75 36C2.75 37.7949 4.20507 39.25 6 39.25H42C43.7949 39.25 45.25 37.7949 45.25 36C45.25 34.2051 43.7949 32.75 42 32.75H41.2499V14C41.2499 11.1005 38.8994 8.75 35.9999 8.75H11.9999ZM7.97998 22.75C7.28962 22.75 6.72998 23.3096 6.72998 24C6.72998 24.6904 7.28962 25.25 7.97998 25.25H7.99998C8.69034 25.25 9.24998 24.6904 9.24998 24C9.24998 23.3096 8.69034 22.75 7.99998 22.75H7.97998ZM19.75 34C19.75 33.3096 20.3096 32.75 21 32.75H24H24.02H27C27.6904 32.75 28.25 33.3096 28.25 34C28.25 34.6904 27.6904 35.25 27 35.25H24.02H24H21C20.3096 35.25 19.75 34.6904 19.75 34Z" fill="#005D92"/>
</svg>
