<svg width="48" height="48" viewBox="0 0 48 48" fill="none" xmlns="http://www.w3.org/2000/svg">
<path fill-rule="evenodd" clip-rule="evenodd" d="M11.75 10C11.75 7.10051 14.1005 4.75 17 4.75H31C33.8995 4.75 36.25 7.1005 36.25 10V38C36.25 40.8995 33.8995 43.25 31 43.25H17C14.1005 43.25 11.75 40.8995 11.75 38V33C11.75 32.3096 12.3096 31.75 13 31.75C13.6904 31.75 14.25 32.3096 14.25 33V38C14.25 39.5188 15.4812 40.75 17 40.75H31C32.5188 40.75 33.75 39.5188 33.75 38V10C33.75 8.48122 32.5188 7.25 31 7.25H17C15.4812 7.25 14.25 8.48122 14.25 10V24C14.25 24.6904 13.6904 25.25 13 25.25C12.3096 25.25 11.75 24.6904 11.75 24V10ZM11.75 29C11.75 28.3096 12.3096 27.75 13 27.75H13.02C13.7104 27.75 14.27 28.3096 14.27 29C14.27 29.6904 13.7104 30.25 13.02 30.25H13C12.3096 30.25 11.75 29.6904 11.75 29ZM20.75 37.5C20.75 36.8096 21.3096 36.25 22 36.25H26C26.6904 36.25 27.25 36.8096 27.25 37.5C27.25 38.1904 26.6904 38.75 26 38.75H22C21.3096 38.75 20.75 38.1904 20.75 37.5Z" fill="#005D92"/>
</svg>
