<svg width="48" height="48" viewBox="0 0 48 48" fill="none" xmlns="http://www.w3.org/2000/svg">
<path fill-rule="evenodd" clip-rule="evenodd" d="M5.10079 12.6724C3.56805 11.2929 4.54387 8.75 6.60596 8.75H40C42.8995 8.75 45.25 11.1005 45.25 14V34C45.25 36.8995 42.8995 39.25 40 39.25H9C6.1005 39.25 3.75 36.8995 3.75 34V27C3.75 26.3096 4.30964 25.75 5 25.75C5.69036 25.75 6.25 26.3096 6.25 27V34C6.25 35.5188 7.48122 36.75 9 36.75H40C41.5188 36.75 42.75 35.5188 42.75 34V14C42.75 12.4812 41.5188 11.25 40 11.25H7.25745L12.6134 16.0703C12.6136 16.0705 12.6132 16.0702 12.6134 16.0703L24 26.3183L35.386 16.0709C35.8992 15.6091 36.6895 15.6507 37.1513 16.1638C37.6132 16.6769 37.5716 17.4673 37.0584 17.9291L24.8362 28.9291C24.3608 29.357 23.6392 29.357 23.1638 28.9291L5.10079 12.6724ZM5 21.25C5.69036 21.25 6.25 21.8096 6.25 22.5V22.51C6.25 23.2004 5.69036 23.76 5 23.76C4.30964 23.76 3.75 23.2004 3.75 22.51V22.5C3.75 21.8096 4.30964 21.25 5 21.25Z" fill="#005D92"/>
</svg>
