<svg width="48" height="48" viewBox="0 0 48 48" fill="none" xmlns="http://www.w3.org/2000/svg">
<path fill-rule="evenodd" clip-rule="evenodd" d="M31.5 6.75C32.1904 6.75 32.75 7.30964 32.75 8V29.4806C32.7502 29.4928 32.7502 29.5049 32.75 29.5171V35C32.75 36.7949 31.2949 38.25 29.5 38.25H28C27.9196 38.25 27.8409 38.2424 27.7647 38.2279C27.0215 38.8651 26.0557 39.25 25 39.25C23.9565 39.25 23.0009 38.874 22.2612 38.25H10.3452C9.75375 38.8663 8.92168 39.25 8 39.25C6.20507 39.25 4.75 37.7949 4.75 36C4.75 34.2051 6.20507 32.75 8 32.75C9.71081 32.75 11.1129 34.0719 11.2405 35.75H20.816C20.7726 35.5065 20.75 35.2559 20.75 35C20.75 32.6528 22.6528 30.75 25 30.75C27.3472 30.75 29.25 32.6528 29.25 35C29.25 35.2559 29.2274 35.5065 29.184 35.75H29.5C29.9142 35.75 30.25 35.4142 30.25 35V29.8785L26.831 24.75H24.1396C23.7821 24.75 23.4743 25.0023 23.4042 25.3529L23.0473 27.1374C22.7435 28.6565 21.4096 29.75 19.8604 29.75H12.5616C11.0702 29.75 9.77029 28.735 9.40859 27.2882L9.28732 26.8032C9.11989 26.1334 9.52709 25.4548 10.1968 25.2873C10.8666 25.1199 11.5452 25.5271 11.7127 26.1968L11.8339 26.6819C11.9174 27.0158 12.2174 27.25 12.5616 27.25H19.8604C20.2179 27.25 20.5257 26.9977 20.5958 26.6471L20.9527 24.8626C21.2565 23.3435 22.5904 22.25 24.1396 22.25H25.0992L20.0731 15.0699C19.9328 14.8694 19.7034 14.75 19.4587 14.75H11.875C11.4608 14.75 11.125 15.0858 11.125 15.5V19.0417C11.125 20.8136 9.68858 22.25 7.91667 22.25C6.44391 22.25 5.25 23.4439 5.25 24.9167V29.5C5.25 30.1904 4.69036 30.75 4 30.75C3.30964 30.75 2.75 30.1904 2.75 29.5V24.9167C2.75 22.0632 5.0632 19.75 7.91667 19.75C8.30787 19.75 8.625 19.4329 8.625 19.0417V15.5C8.625 13.7051 10.0801 12.25 11.875 12.25H19.4587C20.5192 12.25 21.513 12.7674 22.1212 13.6362L28.524 22.7832L28.5333 22.7966L28.5401 22.8066L30.25 25.3715V8C30.25 7.30964 30.8096 6.75 31.5 6.75ZM33.75 22.5C33.75 21.8096 34.3096 21.25 35 21.25H43.5C44.1904 21.25 44.75 21.8096 44.75 22.5V30.5C44.75 31.1904 44.1904 31.75 43.5 31.75H35C34.3096 31.75 33.75 31.1904 33.75 30.5V22.5ZM36.25 23.75V29.25H42.25V23.75H36.25ZM4 31.25C4.69036 31.25 5.25 31.8096 5.25 32.5V32.51C5.25 33.2004 4.69036 33.76 4 33.76C3.30964 33.76 2.75 33.2004 2.75 32.51V32.5C2.75 31.8096 3.30964 31.25 4 31.25ZM33.75 34C33.75 33.3096 34.3096 32.75 35 32.75H43.5C44.1904 32.75 44.75 33.3096 44.75 34C44.75 34.6904 44.1904 35.25 43.5 35.25H35C34.3096 35.25 33.75 34.6904 33.75 34ZM25 33.25C24.0335 33.25 23.25 34.0335 23.25 35C23.25 35.9665 24.0335 36.75 25 36.75C25.9665 36.75 26.75 35.9665 26.75 35C26.75 34.0335 25.9665 33.25 25 33.25ZM7.25 36C7.25 35.5858 7.58579 35.25 8 35.25C8.41421 35.25 8.75 35.5858 8.75 36C8.75 36.4142 8.41421 36.75 8 36.75C7.58579 36.75 7.25 36.4142 7.25 36Z" fill="#005D92"/>
</svg>
