<svg width="48" height="48" viewBox="0 0 48 48" fill="none" xmlns="http://www.w3.org/2000/svg">
<path fill-rule="evenodd" clip-rule="evenodd" d="M23.4999 6.25C22.8095 6.25 22.2499 6.80964 22.2499 7.5V24C22.2499 24.6904 21.6902 25.25 20.9999 25.25C20.3095 25.25 19.7499 24.6904 19.7499 24V10.3246C19.7499 9.73109 19.2688 9.25 18.6753 9.25C18.2128 9.25 17.8022 9.54596 17.6559 9.98475L17.4962 10.4638C17.3331 10.9533 17.2499 11.4659 17.2499 11.9818V25C17.2499 25.6904 16.6902 26.25 15.9999 26.25C15.3095 26.25 14.7499 25.6904 14.7499 25V17.087C14.7499 16.6247 14.3751 16.25 13.9129 16.25C13.5706 16.25 13.2628 16.4584 13.1357 16.7762L13.0471 16.9976C12.8575 17.4716 12.7701 17.9802 12.7905 18.4903L13.1927 28.5458C13.2203 29.2346 13.4371 29.9024 13.8195 30.476L16.3682 34.2989C16.9431 35.1613 17.2499 36.1746 17.2499 37.2111V38C17.2499 38.6904 16.6902 39.25 15.9999 39.25C15.3095 39.25 14.7499 38.6904 14.7499 38V37.2111C14.7499 36.6682 14.5892 36.1374 14.288 35.6857L11.7394 31.8627C11.1021 30.9068 10.7406 29.7937 10.6947 28.6457L10.2925 18.5902C10.258 17.7287 10.4057 16.8697 10.7259 16.0691L10.8145 15.8477C11.3213 14.5808 12.5483 13.75 13.9129 13.75C14.2019 13.75 14.4824 13.7868 14.7499 13.8558V11.9818C14.7499 11.1972 14.8764 10.4177 15.1245 9.67326L15.2842 9.19418C15.7708 7.73454 17.1367 6.75 18.6753 6.75C19.0657 6.75 19.4415 6.81259 19.7932 6.92827C20.0685 5.12856 21.6232 3.75 23.4999 3.75C25.571 3.75 27.2499 5.42893 27.2499 7.5V8.42179C27.5973 8.31024 27.9677 8.25 28.3522 8.25C29.867 8.25 31.22 9.19766 31.7377 10.6213L31.8399 10.9024C32.1111 11.6483 32.2499 12.4357 32.2499 13.2294V20.4994L32.968 19.4941C33.4072 18.8792 33.9682 18.3613 34.6161 17.9725C36.1627 17.0446 38.1655 17.4949 39.1659 18.9956L39.3125 19.2154C40.0016 20.2491 40.1186 21.5619 39.6233 22.7011L36.4456 30.0099C35.518 32.1434 34.1431 34.0528 32.4139 35.6091L31.4913 36.4395C30.7011 37.1506 30.2499 38.1637 30.2499 39.2268V42C30.2499 42.6904 29.6902 43.25 28.9999 43.25C28.3095 43.25 27.7499 42.6904 27.7499 42V39.2268C27.7499 37.455 28.5019 35.7665 29.8189 34.5812L30.7415 33.7509C32.2046 32.434 33.368 30.8183 34.1529 29.0131L37.3306 21.7043C37.4872 21.3441 37.4502 20.929 37.2324 20.6022L37.0858 20.3824C36.8256 19.992 36.3046 19.8749 35.9024 20.1162C35.5485 20.3285 35.2422 20.6114 35.0023 20.9472L33.0741 23.6467L31.1179 27.559C30.8328 28.1293 30.1642 28.3936 29.5662 28.1724C28.9682 27.9512 28.6326 27.3154 28.7872 26.6968L29.7499 22.8461V13.2294C29.7499 12.7271 29.6621 12.2288 29.4905 11.7568L29.3882 11.4756C29.2298 11.04 28.8158 10.75 28.3522 10.75C27.7434 10.75 27.2499 11.2435 27.2499 11.8524V23C27.2499 23.6904 26.6902 24.25 25.9999 24.25C25.3095 24.25 24.7499 23.6904 24.7499 23V7.5C24.7499 6.80964 24.1902 6.25 23.4999 6.25ZM15.9999 40.75C16.6902 40.75 17.2499 41.3096 17.2499 42V42.01C17.2499 42.7004 16.6902 43.26 15.9999 43.26C15.3095 43.26 14.7499 42.7004 14.7499 42.01V42C14.7499 41.3096 15.3095 40.75 15.9999 40.75Z" fill="#005D92"/>
</svg>
