<svg width="48" height="48" viewBox="0 0 48 48" fill="none" xmlns="http://www.w3.org/2000/svg">
<path fill-rule="evenodd" clip-rule="evenodd" d="M39.7915 24.0416C39.7915 15.3431 32.74 8.29163 24.0415 8.29163C19.9221 8.29163 16.1745 9.87145 13.3671 12.4605C12.8596 12.9285 12.0688 12.8965 11.6008 12.389C11.1327 11.8816 11.1647 11.0907 11.6722 10.6227C14.9232 7.62465 19.2697 5.79163 24.0415 5.79163C34.1207 5.79163 42.2915 13.9624 42.2915 24.0416C42.2915 34.1208 34.1207 42.2916 24.0415 42.2916C13.9623 42.2916 5.7915 34.1208 5.7915 24.0416C5.7915 23.3513 6.35115 22.7916 7.0415 22.7916C7.73186 22.7916 8.2915 23.3513 8.2915 24.0416C8.2915 32.7401 15.343 39.7916 24.0415 39.7916C32.74 39.7916 39.7915 32.7401 39.7915 24.0416ZM11.5 14.25C11.5 14.9404 10.9404 15.5 10.25 15.5C9.55964 15.5 9 14.9404 9 14.25C9 13.5596 9.55964 13 10.25 13C10.9404 13 11.5 13.5596 11.5 14.25ZM17.4998 16.75C15.4288 16.75 13.7498 18.4289 13.7498 20.5V21C13.7498 21.6904 14.3095 22.25 14.9998 22.25C15.6902 22.25 16.2498 21.6904 16.2498 21V20.5C16.2498 19.8096 16.8095 19.25 17.4998 19.25C18.1902 19.25 18.7498 19.8096 18.7498 20.5V21C18.7498 21.6904 19.3095 22.25 19.9998 22.25C20.6902 22.25 21.2498 21.6904 21.2498 21V20.5C21.2498 18.4289 19.5709 16.75 17.4998 16.75ZM30.4998 16.75C28.4288 16.75 26.7498 18.4289 26.7498 20.5V21C26.7498 21.6904 27.3095 22.25 27.9998 22.25C28.6902 22.25 29.2498 21.6904 29.2498 21V20.5C29.2498 19.8096 29.8095 19.25 30.4998 19.25C31.1902 19.25 31.7498 19.8096 31.7498 20.5V21C31.7498 21.6904 32.3095 22.25 32.9998 22.25C33.6902 22.25 34.2498 21.6904 34.2498 21V20.5C34.2498 18.4289 32.5709 16.75 30.4998 16.75ZM16.2017 26.6566C16.0121 25.9928 15.3202 25.6084 14.6564 25.7981C13.9926 25.9878 13.6083 26.6796 13.7979 27.3434L13.8749 27.6127C15.1665 32.1333 19.2983 35.25 23.9998 35.25C28.7013 35.25 32.8332 32.1333 34.1248 27.6127L34.2017 27.3434C34.3914 26.6796 34.007 25.9878 33.3432 25.7981C32.6794 25.6084 31.9876 25.9928 31.7979 26.6566L31.721 26.9259C30.736 30.3733 27.5851 32.75 23.9998 32.75C20.4145 32.75 17.2636 30.3733 16.2787 26.9259L16.2017 26.6566Z" fill="#005D92"/>
</svg>
