<svg width="48" height="48" viewBox="0 0 48 48" fill="none" xmlns="http://www.w3.org/2000/svg">
<path fill-rule="evenodd" clip-rule="evenodd" d="M28.57 12.9654C32.9114 8.9858 39.8825 10.4861 42.2025 15.8993C43.5794 19.1122 42.8614 22.8398 40.3893 25.3113L25.8838 39.8133C25.3956 40.3014 24.6042 40.3013 24.1161 39.8131C23.628 39.3249 23.6281 38.5334 24.1163 38.0453L38.6218 23.5433C40.3708 21.7947 40.8789 19.1573 39.9046 16.8841C38.2632 13.0541 33.331 11.9926 30.2593 14.8083L26.5204 18.2356C25.6602 19.0242 24.3399 19.0242 23.4797 18.2356L19.7545 14.8209C16.6762 11.9991 11.7332 13.0628 10.0882 16.9012C9.11633 19.1689 9.61603 21.7994 11.3517 23.5527L18.8838 31.1613C19.3695 31.6519 19.3655 32.4433 18.8749 32.929C18.3843 33.4147 17.5929 33.4107 17.1072 32.9201L9.57507 25.3115C7.1234 22.835 6.41759 19.1195 7.79033 15.9164C10.1139 10.4948 17.0957 8.99223 21.4438 12.978L25.0001 16.2379L28.57 12.9654ZM20.0548 35.5863C20.0548 34.896 20.6144 34.3363 21.3048 34.3363H21.3148C22.0051 34.3363 22.5648 34.896 22.5648 35.5863C22.5648 36.2767 22.0051 36.8363 21.3148 36.8363H21.3048C20.6144 36.8363 20.0548 36.2767 20.0548 35.5863Z" fill="#005D92"/>
</svg>
