<svg width="48" height="48" viewBox="0 0 48 48" fill="none" xmlns="http://www.w3.org/2000/svg">
<path fill-rule="evenodd" clip-rule="evenodd" d="M10.75 8C10.75 7.30964 11.3096 6.75 12 6.75H36C36.6904 6.75 37.25 7.30964 37.25 8C37.25 8.69036 36.6904 9.25 36 9.25H35.25V12.0372C35.25 16.165 32.9178 19.9387 29.2257 21.7847L28.3479 22.2236C27.675 22.56 27.25 23.2477 27.25 24C27.25 24.7523 27.675 25.44 28.3479 25.7764L29.2257 26.2153C32.9178 28.0613 35.25 31.835 35.25 35.9628V38.75H36C36.6904 38.75 37.25 39.3096 37.25 40C37.25 40.6904 36.6904 41.25 36 41.25H12C11.3096 41.25 10.75 40.6904 10.75 40C10.75 39.3096 11.3096 38.75 12 38.75H12.75V35.9628C12.75 31.835 15.0822 28.0613 18.7743 26.2153L19.6521 25.7764C20.325 25.44 20.75 24.7523 20.75 24C20.75 23.2477 20.325 22.56 19.6521 22.2236L18.7743 21.7847C15.0822 19.9387 12.75 16.165 12.75 12.0372V9.25H12C11.3096 9.25 10.75 8.69036 10.75 8ZM15.25 9.25V12.0372C15.25 15.2181 17.0472 18.1261 19.8923 19.5486L20.7702 19.9875C22.29 20.7474 23.25 22.3008 23.25 24C23.25 25.6992 22.29 27.2526 20.7702 28.0125L19.8923 28.4514C17.0472 29.8739 15.25 32.7819 15.25 35.9628V38.75H32.75V35.9628C32.75 32.7819 30.9528 29.8739 28.1076 28.4514L27.2298 28.0125C25.71 27.2526 24.75 25.6992 24.75 24C24.75 22.3008 25.71 20.7474 27.2298 19.9875L28.1076 19.5486C30.9528 18.1261 32.75 15.2181 32.75 12.0372V9.25H15.25ZM21.1086 14.9224C20.7942 14.3185 20.0522 14.0763 19.441 14.382C18.8235 14.6907 18.5732 15.4415 18.882 16.059L19.9772 15.5114C18.882 16.059 18.8823 16.0597 18.8826 16.0604L18.8833 16.0617L18.8848 16.0646L18.8881 16.071L18.8958 16.0861C18.9016 16.0971 18.9086 16.1101 18.9167 16.1249C18.933 16.1544 18.9541 16.1914 18.9803 16.2347C19.0328 16.3211 19.1062 16.4333 19.2031 16.5625C19.3965 16.8203 19.6867 17.1502 20.0941 17.4761C20.9248 18.1406 22.1964 18.75 24 18.75C25.8036 18.75 27.0752 18.1406 27.9059 17.4761C28.3133 17.1502 28.6035 16.8203 28.7969 16.5625C28.8938 16.4333 28.9672 16.3211 29.0197 16.2347C29.0459 16.1914 29.067 16.1544 29.0833 16.1249C29.0914 16.1101 29.0984 16.0971 29.1042 16.0861L29.1119 16.071L29.1152 16.0646L29.1167 16.0617L29.1174 16.0604C29.1177 16.0597 29.118 16.059 28 15.5L29.118 16.059C29.4268 15.4415 29.1765 14.6907 28.559 14.382C27.9478 14.0763 27.2058 14.3185 26.8914 14.9224C26.8899 14.9251 26.887 14.9301 26.8827 14.9372C26.8687 14.9602 26.8406 15.0042 26.7969 15.0625C26.709 15.1797 26.5617 15.3498 26.3441 15.5239C25.9248 15.8594 25.1964 16.25 24 16.25C22.8036 16.25 22.0752 15.8594 21.6559 15.5239C21.4383 15.3498 21.291 15.1797 21.2031 15.0625C21.1594 15.0042 21.1313 14.9602 21.1173 14.9372C21.113 14.9301 21.1101 14.9251 21.1086 14.9224ZM24 28.75C24.6904 28.75 25.25 29.3096 25.25 30V30.01C25.25 30.7004 24.6904 31.26 24 31.26C23.3096 31.26 22.75 30.7004 22.75 30.01V30C22.75 29.3096 23.3096 28.75 24 28.75ZM18.75 35C18.75 34.3096 19.3096 33.75 20 33.75H27.9991C28.6894 33.75 29.25 34.3096 29.25 35C29.25 35.6904 28.6904 36.25 28 36.25H20.0009C19.3106 36.25 18.75 35.6904 18.75 35Z" fill="#005D92"/>
</svg>
