<svg width="48" height="48" viewBox="0 0 48 48" fill="none" xmlns="http://www.w3.org/2000/svg">
<path fill-rule="evenodd" clip-rule="evenodd" d="M19.6571 11.25C18.9277 11.25 18.2283 11.5397 17.7125 12.0555L10.0557 19.7123C9.53997 20.228 9.25023 20.9275 9.25023 21.6569V24C9.25023 24.6904 8.69059 25.25 8.00023 25.25C7.30988 25.25 6.75023 24.6904 6.75023 24V21.6569C6.75023 20.2645 7.30336 18.9291 8.28792 17.9445L15.9448 10.2877C16.9293 9.30312 18.2647 8.75 19.6571 8.75H29.1718C30.0338 8.75 30.8604 9.09241 31.4699 9.7019L32.9245 11.1565C33.3837 9.759 34.6991 8.75 36.2502 8.75C38.1832 8.75 39.7502 10.317 39.7502 12.25V17.9826C40.7112 18.9634 41.2502 20.2823 41.2502 21.6569V38C41.2502 38.6904 40.6906 39.25 40.0002 39.25H34.0002C33.3099 39.25 32.7502 38.6904 32.7502 38V31C32.7502 30.0335 31.9667 29.25 31.0002 29.25C30.0337 29.25 29.2502 30.0335 29.2502 31V38C29.2502 38.6904 28.6906 39.25 28.0002 39.25H8.01C7.31964 39.25 6.76 38.6904 6.76 38V34.5C6.76 33.8096 7.31964 33.25 8.01 33.25C8.70036 33.25 9.26 33.8096 9.26 34.5V36.75H17.7502V22.25H13.5002C12.8099 22.25 12.2502 21.6904 12.2502 21C12.2502 20.3096 12.8099 19.75 13.5002 19.75H18.4825L23.6164 14.6161C24.1045 14.128 24.896 14.128 25.3841 14.6161C25.8723 15.1043 25.8723 15.8957 25.3841 16.3839L20.2502 21.5178V36.75H26.7502V31C26.7502 28.6528 28.653 26.75 31.0002 26.75C33.3474 26.75 35.2502 28.6528 35.2502 31V36.75H38.7502V21.6569C38.7502 20.9275 38.4605 20.228 37.9448 19.7123L37.2502 19.0178V12.25C37.2502 11.6977 36.8025 11.25 36.2502 11.25C35.698 11.25 35.2502 11.6977 35.2502 12.25V14C35.2502 14.5056 34.9457 14.9614 34.4786 15.1548C34.0115 15.3483 33.4738 15.2414 33.1164 14.8839L29.7021 11.4697C29.5615 11.329 29.3707 11.25 29.1718 11.25H19.6571ZM6.75 30C6.75 29.3096 7.30964 28.75 8 28.75H8.01C8.70036 28.75 9.26 29.3096 9.26 30C9.26 30.6904 8.70036 31.25 8.01 31.25H8C7.30964 31.25 6.75 30.6904 6.75 30Z" fill="#005D92"/>
</svg>
