<svg width="48" height="48" viewBox="0 0 48 48" fill="none" xmlns="http://www.w3.org/2000/svg">
<path fill-rule="evenodd" clip-rule="evenodd" d="M15.1183 3.44098C14.8096 2.82351 14.0587 2.57323 13.4413 2.88197C12.8238 3.1907 12.5735 3.94154 12.8822 4.55902L16.4777 11.75H4C3.30964 11.75 2.75 12.3096 2.75 13V39C2.75 39.6903 3.30964 40.25 4 40.25H30.7277L32.8822 44.559C33.191 45.1765 33.9418 45.4268 34.5593 45.118C35.1768 44.8093 35.427 44.0585 35.1183 43.441L19.6232 12.4509C19.6202 12.4447 19.6172 12.4386 19.6141 12.4326L15.1183 3.44098ZM17.7277 14.25H5.25V37.75H29.4777L17.7277 14.25ZM20 4.74997C19.3096 4.74997 18.75 5.30961 18.75 5.99997C18.75 6.69033 19.3096 7.24997 20 7.24997H26.75V15C26.75 15.4142 26.4142 15.75 26 15.75H25.5C24.8096 15.75 24.25 16.3096 24.25 17C24.25 17.6903 24.8096 18.25 25.5 18.25H26C27.7949 18.25 29.25 16.7949 29.25 15V14.25H42.75V37.75H36.5C35.8096 37.75 35.25 38.3096 35.25 39C35.25 39.6903 35.8096 40.25 36.5 40.25H44C44.6904 40.25 45.25 39.6903 45.25 39V13C45.25 12.3096 44.6904 11.75 44 11.75H29.25V5.99997C29.25 5.30961 28.6904 4.74997 28 4.74997H20ZM14.75 22C14.75 21.3096 15.3096 20.75 16 20.75C16.6904 20.75 17.25 21.3096 17.25 22C17.25 22.6903 16.6904 23.25 16 23.25C15.3096 23.25 14.75 22.6903 14.75 22ZM16 18.25C13.9289 18.25 12.25 19.9289 12.25 22C12.25 24.071 13.9289 25.75 16 25.75C18.0711 25.75 19.75 24.071 19.75 22C19.75 19.9289 18.0711 18.25 16 18.25ZM27.5 19.75C26.8096 19.75 26.25 20.3096 26.25 21C26.25 21.6903 26.8096 22.25 27.5 22.25H27.51C28.2004 22.25 28.76 21.6903 28.76 21C28.76 20.3096 28.2004 19.75 27.51 19.75H27.5ZM31 19.75C30.3096 19.75 29.75 20.3096 29.75 21C29.75 21.6903 30.3096 22.25 31 22.25H35C35.6904 22.25 36.25 21.6903 36.25 21C36.25 20.3096 35.6904 19.75 35 19.75H31ZM30.5 24.75C29.8096 24.75 29.25 25.3096 29.25 26C29.25 26.6903 29.8096 27.25 30.5 27.25H38.5C39.1904 27.25 39.75 26.6903 39.75 26C39.75 25.3096 39.1904 24.75 38.5 24.75H30.5ZM12.25 33C12.25 30.9289 13.9289 29.25 16 29.25C18.0711 29.25 19.75 30.9289 19.75 33V33.5C19.75 34.1903 20.3096 34.75 21 34.75C21.6904 34.75 22.25 34.1903 22.25 33.5V33C22.25 29.5482 19.4518 26.75 16 26.75C12.5482 26.75 9.75 29.5482 9.75 33V33.5C9.75 34.1903 10.3096 34.75 11 34.75C11.6904 34.75 12.25 34.1903 12.25 33.5V33ZM32.551 29.75C31.8606 29.75 31.301 30.3096 31.301 31C31.301 31.6903 31.8606 32.25 32.551 32.25H33C33.6904 32.25 34.25 31.6903 34.25 31C34.25 30.3096 33.6904 29.75 33 29.75H32.551Z" fill="#005D92"/>
</svg>
