<svg width="48" height="48" viewBox="0 0 48 48" fill="none" xmlns="http://www.w3.org/2000/svg">
<path fill-rule="evenodd" clip-rule="evenodd" d="M18.75 6C18.75 5.30964 19.3096 4.75 20 4.75H28C28.6904 4.75 29.25 5.30964 29.25 6V11.75H44C44.6904 11.75 45.25 12.3096 45.25 13V39C45.25 39.6904 44.6904 40.25 44 40.25H4C3.30964 40.25 2.75 39.6904 2.75 39V13C2.75 12.3096 3.30964 11.75 4 11.75H18.75V6ZM18.8997 14.25H5.25V37.75H42.75V14.25H29.1003C28.5395 16.546 26.4687 18.25 24 18.25C21.5313 18.25 19.4605 16.546 18.8997 14.25ZM21.25 7.25V13C21.25 14.5188 22.4812 15.75 24 15.75C25.5188 15.75 26.75 14.5188 26.75 13V7.25H21.25ZM16 20.75C15.3096 20.75 14.75 21.3096 14.75 22C14.75 22.6904 15.3096 23.25 16 23.25C16.6904 23.25 17.25 22.6904 17.25 22C17.25 21.3096 16.6904 20.75 16 20.75ZM12.25 22C12.25 19.9289 13.9289 18.25 16 18.25C18.0711 18.25 19.75 19.9289 19.75 22C19.75 24.0711 18.0711 25.75 16 25.75C13.9289 25.75 12.25 24.0711 12.25 22ZM25.25 21C25.25 20.3096 25.8096 19.75 26.5 19.75H26.51C27.2004 19.75 27.76 20.3096 27.76 21C27.76 21.6904 27.2004 22.25 26.51 22.25H26.5C25.8096 22.25 25.25 21.6904 25.25 21ZM29.75 21C29.75 20.3096 30.3096 19.75 31 19.75H35C35.6904 19.75 36.25 20.3096 36.25 21C36.25 21.6904 35.6904 22.25 35 22.25H31C30.3096 22.25 29.75 21.6904 29.75 21ZM25.25 26C25.25 25.3096 25.8096 24.75 26.5 24.75H38.5C39.1904 24.75 39.75 25.3096 39.75 26C39.75 26.6904 39.1904 27.25 38.5 27.25H26.5C25.8096 27.25 25.25 26.6904 25.25 26ZM16 29.25C13.9289 29.25 12.25 30.9289 12.25 33V33.5C12.25 34.1904 11.6904 34.75 11 34.75C10.3096 34.75 9.75 34.1904 9.75 33.5V33C9.75 29.5482 12.5482 26.75 16 26.75C19.4518 26.75 22.25 29.5482 22.25 33V33.5C22.25 34.1904 21.6904 34.75 21 34.75C20.3096 34.75 19.75 34.1904 19.75 33.5V33C19.75 30.9289 18.0711 29.25 16 29.25ZM25.25 31C25.25 30.3096 25.8096 29.75 26.5 29.75H32C32.6904 29.75 33.25 30.3096 33.25 31C33.25 31.6904 32.6904 32.25 32 32.25H26.5C25.8096 32.25 25.25 31.6904 25.25 31Z" fill="#005D92"/>
</svg>
