<svg width="48" height="48" viewBox="0 0 48 48" fill="none" xmlns="http://www.w3.org/2000/svg">
<path fill-rule="evenodd" clip-rule="evenodd" d="M33.2004 4.34855C33.3656 3.77991 33.1091 3.17342 32.586 2.89582C32.063 2.61822 31.4169 2.7457 31.0385 3.20116L12.0385 26.0707C11.7288 26.4436 11.6625 26.9618 11.8684 27.4006C12.0743 27.8393 12.5153 28.1195 13 28.1195H19.333L14.8001 43.6497C14.6342 44.218 14.8897 44.8247 15.4122 45.1031C15.9347 45.3815 16.5808 45.2552 16.96 44.8005L35.96 22.0179C36.2707 21.6454 36.3378 21.1267 36.1321 20.6873C35.9264 20.248 35.4851 19.9673 35 19.9673H28.6647L33.2004 4.34855ZM21 25.6195H15.6636L29.1256 9.41591L25.7996 20.8687C25.69 21.2463 25.7644 21.6535 26.0005 21.9679C26.2365 22.2823 26.6068 22.4673 27 22.4673H32.3299L18.8797 38.5953L22.1999 27.2198C22.3102 26.842 22.2362 26.4344 22.0001 26.1196C21.764 25.8048 21.3935 25.6195 21 25.6195ZM7.25 24C7.25 14.7492 14.7492 7.25 24 7.25C24.6904 7.25 25.25 6.69036 25.25 6C25.25 5.30964 24.6904 4.75 24 4.75C13.3685 4.75 4.75 13.3685 4.75 24C4.75 27.9555 5.94436 31.6358 7.99234 34.6953C8.37635 35.269 9.15273 35.4228 9.72642 35.0388C10.3001 34.6547 10.4539 33.8784 10.0699 33.3047C8.28873 30.6438 7.25 27.4451 7.25 24ZM35.8368 8.81831C35.2926 8.39347 34.5071 8.49021 34.0823 9.03437C33.6575 9.57852 33.7542 10.364 34.2983 10.7889C38.2275 13.8564 40.75 18.6333 40.75 24C40.75 33.2508 33.2508 40.75 24 40.75C23.3096 40.75 22.75 41.3096 22.75 42C22.75 42.6904 23.3096 43.25 24 43.25C34.6315 43.25 43.25 34.6315 43.25 24C43.25 17.8309 40.3466 12.3392 35.8368 8.81831ZM12.6601 36.8545C12.6601 36.1641 12.1005 35.6045 11.4101 35.6045C10.7197 35.6045 10.1601 36.1641 10.1601 36.8545V36.8645C10.1601 37.5548 10.7197 38.1145 11.4101 38.1145C12.1005 38.1145 12.6601 37.5548 12.6601 36.8645V36.8545Z" fill="#005D92"/>
</svg>
