<svg width="48" height="48" viewBox="0 0 48 48" fill="none" xmlns="http://www.w3.org/2000/svg">
<path fill-rule="evenodd" clip-rule="evenodd" d="M28.116 11.1161C30.5372 8.69497 34.4626 8.69497 36.8838 11.1161C39.3049 13.5373 39.3049 17.4627 36.8838 19.8839L33.3838 23.3839C32.8956 23.872 32.1042 23.872 31.616 23.3839C31.1278 22.8957 31.1278 22.1043 31.616 21.6161L35.116 18.1161C36.5608 16.6713 36.5608 14.3287 35.116 12.8839C33.6712 11.4391 31.3286 11.4391 29.8838 12.8839L22.2122 20.5555C21.1383 21.6294 21.1383 23.3706 22.2122 24.4446L22.3838 24.6161C22.8719 25.1043 22.8719 25.8957 22.3838 26.3839C21.8956 26.872 21.1042 26.872 20.616 26.3839L20.4444 26.2123C18.3942 24.1621 18.3942 20.838 20.4444 18.7877L28.116 11.1161Z" fill="#005D92"/>
<path fill-rule="evenodd" clip-rule="evenodd" d="M25.6161 21.6161C26.1043 21.128 26.8957 21.128 27.3839 21.6161L27.5554 21.7877C29.6057 23.8379 29.6057 27.1621 27.5554 29.2123L19.9194 36.8483C17.4786 39.2891 13.5213 39.2891 11.0806 36.8483L10.6825 36.4502C8.48313 34.2509 8.23568 30.7691 10.1019 28.2808L10.5 27.75C10.9142 27.1977 11.6977 27.0858 12.25 27.5C12.8023 27.9142 12.9142 28.6977 12.5 29.25L12.1019 29.7808C10.9822 31.2738 11.1306 33.3629 12.4502 34.6825L12.8483 35.0806C14.3128 36.545 16.6872 36.545 18.1516 35.0806L25.7877 27.4445C26.8616 26.3706 26.8616 24.6294 25.7877 23.5555L25.6161 23.3839C25.1279 22.8957 25.1279 22.1043 25.6161 21.6161Z" fill="#005D92"/>
<path fill-rule="evenodd" clip-rule="evenodd" d="M12.75 25C12.75 24.3096 13.3096 23.75 14 23.75H14.01C14.7004 23.75 15.26 24.3096 15.26 25C15.26 25.6904 14.7004 26.25 14.01 26.25H14C13.3096 26.25 12.75 25.6904 12.75 25Z" fill="#005D92"/>
</svg>
