<svg width="48" height="48" viewBox="0 0 48 48" fill="none" xmlns="http://www.w3.org/2000/svg">
<path fill-rule="evenodd" clip-rule="evenodd" d="M26.75 11C26.75 6.44365 30.4437 2.75 35 2.75C39.5564 2.75 43.25 6.44365 43.25 11C43.25 12.5533 42.8195 14.0099 42.0707 15.2527L42.0538 15.2808L37.5957 21.872C37.0128 22.7337 36.0403 23.25 35 23.25C33.9597 23.25 32.9872 22.7337 32.4043 21.872L27.9462 15.2808L27.9293 15.2527C27.1805 14.0099 26.75 12.5533 26.75 11ZM35 5.25C31.8244 5.25 29.25 7.82436 29.25 11C29.25 12.0748 29.5437 13.0773 30.0547 13.9357L34.4752 20.4714C34.593 20.6456 34.7896 20.75 35 20.75C35.2104 20.75 35.407 20.6456 35.5248 20.4714L39.9453 13.9357C40.4563 13.0774 40.75 12.0748 40.75 11C40.75 7.82436 38.1756 5.25 35 5.25ZM7.93305 21.25C7.48855 22.7559 7.25 24.3501 7.25 26C7.25 27.6499 7.48855 29.2441 7.93305 30.75H15.7176C15.153 27.6105 15.153 24.3895 15.7176 21.25H7.93305ZM8.89604 18.75H16.2921C17.215 15.466 18.778 12.3242 20.981 9.52135C15.6387 10.4938 11.1801 14.0002 8.89604 18.75ZM24.5255 9.24974C25.2041 9.23615 25.75 8.68183 25.75 8C25.75 7.30965 25.1904 6.75 24.5 6.75L24 6.75C13.3685 6.75 4.75 15.3685 4.75 26C4.75 36.6315 13.3685 45.25 24 45.25C34.6315 45.25 43.25 36.6315 43.25 26C43.25 24.4435 43.065 22.9285 42.7152 21.4765C42.5536 20.8054 41.8784 20.3923 41.2073 20.554C40.5361 20.7157 40.1231 21.3908 40.2848 22.062C40.5887 23.3237 40.75 24.6422 40.75 26C40.75 27.6499 40.5114 29.2441 40.0669 30.75H32.2823C32.6405 28.7581 32.7715 26.7336 32.6753 24.7183C32.6423 24.0287 32.0566 23.4964 31.367 23.5294C30.6775 23.5623 30.1452 24.148 30.1781 24.8376C30.2726 26.8153 30.1259 28.802 29.738 30.75H18.2622C17.6381 27.6165 17.6381 24.3835 18.2622 21.25H27.5C28.1904 21.25 28.75 20.6904 28.75 20C28.75 19.3096 28.1904 18.75 27.5 18.75H18.9002C19.9819 15.2933 21.857 12.0314 24.5255 9.24974ZM16.2921 33.25H8.89604C11.1801 37.9998 15.6387 41.5062 20.981 42.4786C18.778 39.6758 17.215 36.534 16.2921 33.25ZM27.0189 42.4787C32.3612 41.5063 36.8199 37.9998 39.104 33.25H31.7076C30.7847 36.5337 29.2218 39.6758 27.0189 42.4787ZM29.1001 33.25H18.9002C19.9095 36.4751 21.6094 39.5308 24 42.1849C26.3908 39.5307 28.0909 36.4753 29.1001 33.25ZM35 8.5C33.6193 8.5 32.5 9.61929 32.5 11C32.5 12.3807 33.6193 13.5 35 13.5C36.3807 13.5 37.5 12.3807 37.5 11C37.5 9.61929 36.3807 8.5 35 8.5Z" fill="#005D92"/>
</svg>
