<svg width="48" height="48" viewBox="0 0 48 48" fill="none" xmlns="http://www.w3.org/2000/svg">
<path fill-rule="evenodd" clip-rule="evenodd" d="M8.79906 38.3479C8.76712 38.2375 8.75 38.1207 8.75 38L8.75 35.75C8.75 35.7494 8.75 35.7488 8.75 35.7482L8.75 6.25C8.75 4.317 10.317 2.75 12.25 2.75C14.183 2.75 15.75 4.317 15.75 6.25L15.75 6.75L37 6.75C38.7949 6.75 40.25 8.20507 40.25 10L40.25 36.5C40.25 38.2949 38.7949 39.75 37 39.75L35.75 39.75L35.75 43.5C35.75 44.1904 35.1904 44.75 34.5 44.75L16 44.75C12.2828 44.75 9.21895 41.9525 8.79906 38.3479ZM33.25 39.75L16.5 39.75C14.7051 39.75 13.25 38.2949 13.25 36.5L13.25 35.75C13.25 35.7499 13.25 35.7501 13.25 35.75C13.2499 35.1978 12.8022 34.75 12.25 34.75C11.698 34.75 11.2505 35.1972 11.25 35.749C11.25 35.7494 11.25 35.7487 11.25 35.749L11.25 37.5C11.25 40.1234 13.3766 42.25 16 42.25L33.25 42.25L33.25 39.75ZM11.25 32.3949C11.5669 32.3006 11.9025 32.25 12.25 32.25C12.5975 32.25 12.9331 32.3006 13.25 32.3949L13.25 6.25C13.25 5.69772 12.8023 5.25 12.25 5.25C11.6977 5.25 11.25 5.69772 11.25 6.25L11.25 32.3949ZM15.75 35.75C15.75 35.7501 15.75 35.7499 15.75 35.75L15.75 36C15.75 36 15.75 36 15.75 36L15.75 36.5C15.75 36.9142 16.0858 37.25 16.5 37.25L37 37.25C37.4142 37.25 37.75 36.9142 37.75 36.5L37.75 10C37.75 9.58579 37.4142 9.25 37 9.25L15.75 9.25L15.75 35.75ZM18.75 32C18.75 31.3096 19.3096 30.75 20 30.75L29 30.75C29.6904 30.75 30.25 31.3096 30.25 32C30.25 32.6904 29.6904 33.25 29 33.25L20 33.25C19.3096 33.25 18.75 32.6904 18.75 32ZM18.75 27C18.75 26.3096 19.3096 25.75 20 25.75L33.5 25.75C34.1904 25.75 34.75 26.3096 34.75 27C34.75 27.6904 34.1904 28.25 33.5 28.25L20 28.25C19.3096 28.25 18.75 27.6904 18.75 27ZM18.75 22C18.75 21.3096 19.3096 20.75 20 20.75L33.5 20.75C34.1904 20.75 34.75 21.3096 34.75 22C34.75 22.6904 34.1904 23.25 33.5 23.25L20 23.25C19.3096 23.25 18.75 22.6904 18.75 22ZM24 18.75C21.9289 18.75 20.25 17.0711 20.25 15C20.25 12.9289 21.9289 11.25 24 11.25L29.5 11.25C31.5711 11.25 33.25 12.9289 33.25 15C33.25 17.0711 31.5711 18.75 29.5 18.75L24 18.75ZM22.75 15C22.75 15.6904 23.3096 16.25 24 16.25L29.5 16.25C30.1904 16.25 30.75 15.6904 30.75 15C30.75 14.3096 30.1904 13.75 29.5 13.75L24 13.75C23.3096 13.75 22.75 14.3096 22.75 15ZM32.25 32C32.25 31.3096 32.8096 30.75 33.5 30.75L33.51 30.75C34.2004 30.75 34.76 31.3096 34.76 32C34.76 32.6904 34.2004 33.25 33.51 33.25L33.5 33.25C32.8096 33.25 32.25 32.6904 32.25 32Z" fill="#005D92"/>
</svg>
