<svg width="48" height="48" viewBox="0 0 48 48" fill="none" xmlns="http://www.w3.org/2000/svg">
<path fill-rule="evenodd" clip-rule="evenodd" d="M6.75 16C6.75 10.8914 10.8914 6.75 16 6.75H34C38.0041 6.75 41.25 9.99594 41.25 14V30C41.25 31.7949 39.7949 33.25 38 33.25H25.25V42C25.25 42.6904 24.6904 43.25 24 43.25C23.3096 43.25 22.75 42.6904 22.75 42V33.25H12C9.10051 33.25 6.75 30.8995 6.75 28V27C6.75 26.3096 7.30964 25.75 8 25.75C8.69036 25.75 9.25 26.3096 9.25 27V28C9.25 29.5188 10.4812 30.75 12 30.75H26.75V14C26.75 12.1831 27.4184 10.5223 28.5226 9.25H16C12.2721 9.25 9.25 12.2721 9.25 16V17C9.25 17.6904 8.69036 18.25 8 18.25C7.30964 18.25 6.75 17.6904 6.75 17V16ZM34 9.25C31.3766 9.25 29.25 11.3766 29.25 14V14.75H38.75V14C38.75 11.3766 36.6234 9.25 34 9.25ZM38.75 17.25H29.25V30.75H38C38.4142 30.75 38.75 30.4142 38.75 30V17.25ZM16 17.25C15.5858 17.25 15.25 17.5858 15.25 18V20C15.25 20.4142 15.5858 20.75 16 20.75H17C17.4142 20.75 17.75 20.4142 17.75 20V17.25H16ZM20.25 17.25H22C22.6904 17.25 23.25 16.6904 23.25 16C23.25 15.3096 22.6904 14.75 22 14.75H16C14.2051 14.75 12.75 16.2051 12.75 18V20C12.75 21.7949 14.2051 23.25 16 23.25H17C18.7949 23.25 20.25 21.7949 20.25 20V17.25ZM8 21.25C8.69036 21.25 9.25 21.8096 9.25 22.5V22.51C9.25 23.2004 8.69036 23.76 8 23.76C7.30964 23.76 6.75 23.2004 6.75 22.51V22.5C6.75 21.8096 7.30964 21.25 8 21.25ZM31.75 26C31.75 25.3096 32.3096 24.75 33 24.75H35C35.6904 24.75 36.25 25.3096 36.25 26C36.25 26.6904 35.6904 27.25 35 27.25H33C32.3096 27.25 31.75 26.6904 31.75 26Z" fill="#005D92"/>
</svg>
