<svg width="48" height="48" viewBox="0 0 48 48" fill="none" xmlns="http://www.w3.org/2000/svg">
<path fill-rule="evenodd" clip-rule="evenodd" d="M24 4.75C15.5777 4.75 8.75 11.5777 8.75 20C8.75 22.873 9.54566 25.564 10.9293 27.8603L10.9497 27.894L16.2846 35.6044C16.6774 36.1721 17.456 36.3139 18.0237 35.9211C18.5914 35.5283 18.7332 34.7497 18.3404 34.182L13.0509 26.5371C11.9075 24.6265 11.25 22.3919 11.25 20C11.25 12.9584 16.9584 7.25 24 7.25C31.0416 7.25 36.75 12.9584 36.75 20C36.75 22.3821 36.0979 24.6082 34.9632 26.5136L23.0049 42.2435C22.5871 42.7931 22.6939 43.5773 23.2435 43.9951C23.7931 44.4129 24.5773 44.3061 24.9951 43.7565L37.0359 27.918L37.0707 27.8603C38.4543 25.564 39.25 22.873 39.25 20C39.25 11.5777 32.4223 4.75 24 4.75ZM19.99 37.25C19.2996 37.25 18.74 37.8096 18.74 38.5C18.74 39.1904 19.2996 39.75 19.99 39.75H20C20.6904 39.75 21.25 39.1904 21.25 38.5C21.25 37.8096 20.6904 37.25 20 37.25H19.99ZM19.25 20C19.25 17.3766 21.3766 15.25 24 15.25C26.6234 15.25 28.75 17.3766 28.75 20C28.75 22.6234 26.6234 24.75 24 24.75C21.3766 24.75 19.25 22.6234 19.25 20ZM24 12.75C19.9959 12.75 16.75 15.9959 16.75 20C16.75 24.0041 19.9959 27.25 24 27.25C28.0041 27.25 31.25 24.0041 31.25 20C31.25 15.9959 28.0041 12.75 24 12.75Z" fill="#005D92"/>
</svg>
