<svg width="48" height="48" viewBox="0 0 48 48" fill="none" xmlns="http://www.w3.org/2000/svg">
<path fill-rule="evenodd" clip-rule="evenodd" d="M39.7915 25.0416C39.7915 16.3431 32.74 9.29163 24.0415 9.29163C19.9221 9.29163 16.1745 10.8715 13.3671 13.4605C12.8596 13.9285 12.0688 13.8965 11.6008 13.389C11.1327 12.8816 11.1647 12.0907 11.6722 11.6227C14.9232 8.62465 19.2697 6.79163 24.0415 6.79163C34.1207 6.79163 42.2915 14.9624 42.2915 25.0416C42.2915 35.1208 34.1207 43.2916 24.0415 43.2916C13.9623 43.2916 5.7915 35.1208 5.7915 25.0416C5.7915 24.3513 6.35115 23.7916 7.0415 23.7916C7.73186 23.7916 8.2915 24.3513 8.2915 25.0416C8.2915 33.7401 15.343 40.7916 24.0415 40.7916C32.74 40.7916 39.7915 33.7401 39.7915 25.0416ZM18.25 23.5C17.2835 23.5 16.5 22.7165 16.5 21.75C16.5 20.7835 17.2835 20 18.25 20C19.2165 20 20 20.7835 20 21.75C20 22.7165 19.2165 23.5 18.25 23.5ZM31.5 21.75C31.5 22.7165 30.7165 23.5 29.75 23.5C28.7835 23.5 28 22.7165 28 21.75C28 20.7835 28.7835 20 29.75 20C30.7165 20 31.5 20.7835 31.5 21.75ZM16.75 31C16.75 30.3096 17.3096 29.75 18 29.75L30 29.75C30.6904 29.75 31.25 30.3096 31.25 31C31.25 31.6904 30.6904 32.25 30 32.25L18 32.25C17.3096 32.25 16.75 31.6904 16.75 31ZM10.25 16.5C10.9404 16.5 11.5 15.9404 11.5 15.25C11.5 14.5596 10.9404 14 10.25 14C9.55964 14 9 14.5596 9 15.25C9 15.9404 9.55964 16.5 10.25 16.5Z" fill="#005D92"/>
</svg>
