<svg width="48" height="48" viewBox="0 0 48 48" fill="none" xmlns="http://www.w3.org/2000/svg">
<path fill-rule="evenodd" clip-rule="evenodd" d="M38.75 10C38.75 9.58579 38.4142 9.25 38 9.25H10C9.58579 9.25 9.25 9.58579 9.25 10V19C9.25 19.6904 8.69036 20.25 8 20.25C7.30964 20.25 6.75 19.6904 6.75 19V10C6.75 8.20507 8.20507 6.75 10 6.75H38C39.7949 6.75 41.25 8.20508 41.25 10V26C41.25 27.7949 39.7949 29.25 38 29.25H8C7.30964 29.25 6.75 28.6904 6.75 28C6.75 27.3096 7.30964 26.75 8 26.75H38C38.4142 26.75 38.75 26.4142 38.75 26V10ZM6.75 23.5C6.75 22.8096 7.30964 22.25 8 22.25C8.69036 22.25 9.25 22.8096 9.25 23.5V23.5091C9.25 24.1994 8.69036 24.7591 8 24.7591C7.30964 24.7591 6.75 24.1994 6.75 23.5091V23.5ZM38 30.75C39.7949 30.75 41.25 32.2051 41.25 34V38C41.25 39.7949 39.7949 41.25 38 41.25H34C32.2051 41.25 30.75 39.7949 30.75 38V34C30.75 32.2051 32.2051 30.75 34 30.75H38ZM38.75 34C38.75 33.5858 38.4142 33.25 38 33.25H34C33.5858 33.25 33.25 33.5858 33.25 34V38C33.25 38.4142 33.5858 38.75 34 38.75H38C38.4142 38.75 38.75 38.4142 38.75 38V34ZM29.25 34C29.25 32.2051 27.7949 30.75 26 30.75H22C20.2051 30.75 18.75 32.2051 18.75 34V38C18.75 39.7949 20.2051 41.25 22 41.25H26C27.7949 41.25 29.25 39.7949 29.25 38V34ZM26 33.25C26.4142 33.25 26.75 33.5858 26.75 34V38C26.75 38.4142 26.4142 38.75 26 38.75H22C21.5858 38.75 21.25 38.4142 21.25 38V34C21.25 33.5858 21.5858 33.25 22 33.25H26ZM14 30.75C15.7949 30.75 17.25 32.2051 17.25 34V38C17.25 39.7949 15.7949 41.25 14 41.25H10C8.20507 41.25 6.75 39.7949 6.75 38V34C6.75 32.2051 8.20507 30.75 10 30.75H14ZM14.75 34C14.75 33.5858 14.4142 33.25 14 33.25H10C9.58579 33.25 9.25 33.5858 9.25 34V38C9.25 38.4142 9.58579 38.75 10 38.75H14C14.4142 38.75 14.75 38.4142 14.75 38V34Z" fill="#005D92"/>
</svg>
