<svg width="48" height="48" viewBox="0 0 48 48" fill="none" xmlns="http://www.w3.org/2000/svg">
<path fill-rule="evenodd" clip-rule="evenodd" d="M15.141 5.75C13.3856 5.75 11.7464 6.62728 10.7727 8.08782L5.96018 15.3066C5.70447 15.6902 5.68063 16.1834 5.89815 16.5898C6.11567 16.9963 6.53925 17.25 7.00024 17.25H34.5002C35.1906 17.25 35.7502 16.6904 35.7502 16C35.7502 15.3096 35.1906 14.75 34.5002 14.75H25.2502V12C25.2502 11.3096 24.6906 10.75 24.0002 10.75C23.3099 10.75 22.7502 11.3096 22.7502 12V14.75H9.33589L12.8528 9.47457C13.3629 8.70953 14.2215 8.25 15.141 8.25H32.8595C33.779 8.25 34.6376 8.70953 35.1476 9.47457L39.1204 15.4338C39.5311 16.0498 39.7502 16.7735 39.7502 17.5139V23C39.7502 23.6904 40.3099 24.25 41.0002 24.25C41.6906 24.25 42.2502 23.6904 42.2502 23V17.5139C42.2502 16.28 41.885 15.0737 41.2006 14.047L37.2278 8.08782C36.2541 6.62728 34.6149 5.75 32.8595 5.75H15.141ZM7 20.75C6.30964 20.75 5.75 21.3096 5.75 22C5.75 22.6904 6.30964 23.25 7 23.25H7.01001C7.70037 23.25 8.26001 22.6904 8.26001 22C8.26001 21.3096 7.70037 20.75 7.01001 20.75H7ZM8.25 26.5C8.25 25.8096 7.69036 25.25 7 25.25C6.30964 25.25 5.75 25.8096 5.75 26.5V37C5.75 39.8995 8.10051 42.25 11 42.25H16C16.6904 42.25 17.25 41.6904 17.25 41C17.25 40.3096 16.6904 39.75 16 39.75H11C9.48122 39.75 8.25 38.5188 8.25 37V26.5ZM21.1426 26.75C20.4522 26.75 19.8926 27.3096 19.8926 28V41.8333C19.8926 43.076 20.8999 44.0833 22.1426 44.0833H41.3331C42.5757 44.0833 43.5831 43.076 43.5831 41.8333V28C43.5831 27.3096 43.0234 26.75 42.3331 26.75H21.1426ZM26.0989 30.779L24.4 29.25H39.0756L31.7378 35.854L26.0989 30.779ZM32.574 38.4648L41.0831 30.8067V41.5833H22.3926V30.8067L30.9016 38.4648C31.377 38.8927 32.0986 38.8927 32.574 38.4648Z" fill="#005D92"/>
</svg>
