<svg width="48" height="48" viewBox="0 0 48 48" fill="none" xmlns="http://www.w3.org/2000/svg">
<path fill-rule="evenodd" clip-rule="evenodd" d="M36.3194 8.81987C28.2676 6.51935 19.7324 6.51935 11.6806 8.81987C11.4257 8.8927 11.25 9.12567 11.25 9.39076V21C11.25 21.6904 10.6904 22.25 10 22.25C9.30964 22.25 8.75 21.6904 8.75 21V9.39076C8.75 8.00947 9.66567 6.79553 10.9938 6.41606C19.4945 3.98729 28.5055 3.98729 37.0062 6.41606C38.3343 6.79553 39.25 8.00947 39.25 9.39076V43.5C39.25 44.1904 38.6904 44.75 38 44.75C37.3096 44.75 36.75 44.1904 36.75 43.5V36.473C35.9502 36.9658 35.0083 37.25 34 37.25H14C12.9917 37.25 12.0498 36.9658 11.25 36.473V43.5C11.25 44.1904 10.6904 44.75 10 44.75C9.30964 44.75 8.75 44.1904 8.75 43.5V29C8.75 28.3097 9.30964 27.75 10 27.75C10.6904 27.75 11.25 28.3097 11.25 29V32C11.25 33.5188 12.4812 34.75 14 34.75H34C35.5188 34.75 36.75 33.5188 36.75 32V9.39076C36.75 9.12567 36.5743 8.8927 36.3194 8.81987ZM14.75 13.5C14.75 12.2574 15.7574 11.25 17 11.25H31C32.2426 11.25 33.25 12.2574 33.25 13.5V17.0152C33.25 17.8737 32.6657 18.6221 31.8328 18.8303C26.6901 20.116 21.3099 20.116 16.1671 18.8303C15.3343 18.6221 14.75 17.8737 14.75 17.0152V13.5ZM17.25 13.75V16.5199C21.6907 17.5528 26.3093 17.5528 30.75 16.5199V13.75H17.25ZM10 24.24C10.6904 24.24 11.25 24.7997 11.25 25.49V25.5C11.25 26.1904 10.6904 26.75 10 26.75C9.30964 26.75 8.75 26.1904 8.75 25.5V25.49C8.75 24.7997 9.30964 24.24 10 24.24Z" fill="#005D92"/>
</svg>
