<svg width="48" height="48" viewBox="0 0 48 48" fill="none" xmlns="http://www.w3.org/2000/svg">
<path fill-rule="evenodd" clip-rule="evenodd" d="M39.75 24C39.75 15.3015 32.6985 8.25 24 8.25C19.8806 8.25 16.133 9.82983 13.3256 12.4189C12.8181 12.8869 12.0273 12.8549 11.5593 12.3474C11.0912 11.8399 11.1232 11.0491 11.6307 10.5811C14.8817 7.58302 19.2282 5.75 24 5.75C34.0792 5.75 42.25 13.9208 42.25 24C42.25 34.0792 34.0792 42.25 24 42.25C13.9208 42.25 5.75 34.0792 5.75 24C5.75 23.3096 6.30964 22.75 7 22.75C7.69036 22.75 8.25 23.3096 8.25 24C8.25 32.6985 15.3015 39.75 24 39.75C32.6985 39.75 39.75 32.6985 39.75 24ZM11.459 14.2085C11.459 14.8989 10.8993 15.4585 10.209 15.4585C9.51863 15.4585 8.95899 14.8989 8.95899 14.2085C8.95899 13.5181 9.51863 12.9585 10.209 12.9585C10.8993 12.9585 11.459 13.5181 11.459 14.2085ZM24.5003 14.25C22.9759 14.25 21.8233 14.7158 20.9694 15.3989C20.1397 16.0627 19.6665 16.8724 19.3822 17.441C19.0735 18.0585 19.3238 18.8093 19.9413 19.118C20.5587 19.4268 21.3096 19.1765 21.6183 18.559C21.834 18.1276 22.1108 17.6873 22.5311 17.3511C22.9272 17.0342 23.5247 16.75 24.5003 16.75C26.2098 16.75 27.2503 18.0857 27.2503 19.5C27.2503 20.8829 26.4599 21.6517 25.1393 22.9062C23.8856 24.0973 22.2503 25.6748 22.2503 28.5C22.2503 29.1904 22.8099 29.75 23.5003 29.75C24.1906 29.75 24.7503 29.1904 24.7503 28.5C24.7503 26.8252 25.6149 25.9027 26.8612 24.7188C26.9183 24.6645 26.9767 24.6094 27.036 24.5534C28.2022 23.4522 29.7503 21.9904 29.7503 19.5C29.7503 16.9143 27.7908 14.25 24.5003 14.25ZM24.7503 32.5C24.7503 31.8096 24.1906 31.25 23.5003 31.25C22.8099 31.25 22.2503 31.8096 22.2503 32.5V32.51C22.2503 33.2004 22.8099 33.76 23.5003 33.76C24.1906 33.76 24.7503 33.2004 24.7503 32.51V32.5Z" fill="#005D92"/>
</svg>
