<svg width="48" height="48" viewBox="0 0 48 48" fill="none" xmlns="http://www.w3.org/2000/svg">
<path fill-rule="evenodd" clip-rule="evenodd" d="M13.4413 2.882C14.0587 2.57326 14.8096 2.82354 15.1183 3.44101L35.1183 43.441C35.427 44.0585 35.1768 44.8093 34.5593 45.1181C33.9418 45.4268 33.191 45.1765 32.8822 44.559L30.7277 40.25H13.5C7.56294 40.25 2.75 35.4371 2.75 29.5V28C2.75 23.3153 6.23255 19.444 10.75 18.8338V17C10.75 13.736 12.6448 10.9171 15.3922 9.579L12.8822 4.55905C12.5735 3.94157 12.8238 3.19073 13.4413 2.882ZM16.5103 11.8151L29.4777 37.75H13.5C8.94365 37.75 5.25 34.0564 5.25 29.5V28C5.25 24.6992 7.61929 21.9517 10.75 21.3655V22C10.75 22.6904 11.3096 23.25 12 23.25C12.6904 23.25 13.25 22.6904 13.25 22V17C13.25 14.7177 14.5804 12.7435 16.5103 11.8151ZM20.3325 10.0131C20.5791 9.3683 21.3017 9.04551 21.9465 9.29213C24.3017 10.1929 26.1401 12.143 26.887 14.5722C28.0938 13.442 29.7161 12.75 31.5 12.75C35.2279 12.75 38.25 15.7721 38.25 19.5V20.8441C42.2132 21.4465 45.25 24.8686 45.25 29V30L45.2501 30C45.2501 35.2768 41.2637 39.6208 36.1375 40.1875C35.4513 40.2634 34.8335 39.7686 34.7577 39.0824C34.6818 38.3962 35.1766 37.7785 35.8628 37.7026C39.7314 37.275 42.7423 33.9968 42.7501 30.0154C42.75 30.0103 42.75 30.0051 42.75 30V29C42.75 25.8244 40.1756 23.25 37 23.25H35.0006C34.3102 23.25 33.75 22.6904 33.75 22C33.75 21.3097 34.3096 20.75 35 20.75H35.75V19.5C35.75 17.1528 33.8472 15.25 31.5 15.25C29.1528 15.25 27.25 17.1528 27.25 19.5V20C27.25 20.6904 26.6904 21.25 26 21.25C25.3096 21.25 24.75 20.6904 24.75 20V17C24.75 14.5499 23.217 12.4547 21.0535 11.6272C20.4087 11.3805 20.0859 10.6579 20.3325 10.0131Z" fill="#005D92"/>
</svg>
