<svg width="48" height="48" viewBox="0 0 48 48" fill="none" xmlns="http://www.w3.org/2000/svg">
<path fill-rule="evenodd" clip-rule="evenodd" d="M11.75 7.99994C11.75 7.30958 12.3096 6.74994 13 6.74994H35C35.6904 6.74994 36.25 7.30958 36.25 7.99994V9.99994C36.25 11.7949 34.7949 13.2499 33 13.2499H25.5V15.7952C34.3052 16.4352 41.25 23.7816 41.25 32.75V39.1154C41.25 40.2943 40.2943 41.25 39.1154 41.25H18C17.3096 41.25 16.75 40.6903 16.75 40C16.75 39.3096 17.3096 38.75 18 38.75H38.75V32.75C38.75 24.7419 32.2581 18.25 24.25 18.25C15.9657 18.25 9.25 24.9657 9.25 33.25V38.75H11C11.6904 38.75 12.25 39.3096 12.25 40C12.25 40.6903 11.6904 41.25 11 41.25H8.88462C7.7057 41.25 6.75 40.2943 6.75 39.1154V33.25C6.75 24.0053 13.9184 16.4349 23 15.7939V13.2499H15C13.2051 13.2499 11.75 11.7949 11.75 9.99994V7.99994ZM14.25 9.24994V9.99994C14.25 10.4142 14.5858 10.7499 15 10.7499H33C33.4142 10.7499 33.75 10.4142 33.75 9.99994V9.24994H14.25ZM15.75 27.5C15.75 22.9436 19.4437 19.25 24 19.25C28.5563 19.25 32.25 22.9436 32.25 27.5V28C32.25 32.5563 28.5563 36.25 24 36.25C19.4437 36.25 15.75 32.5563 15.75 28V27.5ZM24 21.75C20.8244 21.75 18.25 24.3244 18.25 27.5V28C18.25 31.1756 20.8244 33.75 24 33.75C27.1756 33.75 29.75 31.1756 29.75 28V27.5C29.75 24.3244 27.1756 21.75 24 21.75ZM24 23.25C24.6904 23.25 25.25 23.8096 25.25 24.5V28C25.25 28.6903 24.6904 29.25 24 29.25C23.3096 29.25 22.75 28.6903 22.75 28V24.5C22.75 23.8096 23.3096 23.25 24 23.25ZM14 38.74C14.6904 38.74 15.25 39.2996 15.25 39.99V40C15.25 40.6903 14.6904 41.25 14 41.25C13.3096 41.25 12.75 40.6903 12.75 40V39.99C12.75 39.2996 13.3096 38.74 14 38.74Z" fill="#005D92"/>
</svg>
