<svg width="48" height="48" viewBox="0 0 48 48" fill="none" xmlns="http://www.w3.org/2000/svg">
<path fill-rule="evenodd" clip-rule="evenodd" d="M11.0838 3.37688C10.7397 2.7784 9.9756 2.57221 9.37712 2.91633C8.77865 3.26046 8.57246 4.02458 8.91658 4.62306L13.2083 12.0868C10.4752 14.5126 8.75 18.0551 8.75 22C8.75 29.3178 14.6822 35.25 22 35.25C23.6292 35.25 25.0177 35.005 26.1746 34.637L31.9166 44.6231C32.2607 45.2215 33.0248 45.4277 33.6233 45.0836C34.2218 44.7395 34.428 43.9753 34.0838 43.3769L11.0838 3.37688ZM24.8913 32.4052L16.8695 18.4543C16.5183 18.9545 16.2471 19.5093 16.0687 20.0969C15.8682 20.7574 15.1701 21.1303 14.5095 20.9298C13.8489 20.7292 13.476 20.0311 13.6766 19.3705C14.0422 18.1664 14.6794 17.0585 15.5369 16.1367L14.4871 14.311C12.4883 16.2641 11.25 18.9872 11.25 22C11.25 27.9371 16.0629 32.75 22 32.75C23.1203 32.75 24.0808 32.6131 24.8913 32.4052ZM19.9546 11.4441C20.6158 11.3168 21.2995 11.25 22 11.25C27.9371 11.25 32.75 16.0629 32.75 22C32.75 24.9622 31.5536 27.6425 29.6146 29.5882L29.6294 29.603L29.6161 29.6161C29.128 30.1043 29.128 30.8957 29.6161 31.3839L35.6161 37.3839C36.1043 37.872 36.8957 37.872 37.3839 37.3839C37.872 36.8957 37.872 36.1043 37.3839 35.6161L32.2115 30.4437C34.1085 28.1517 35.25 25.2083 35.25 22C35.25 14.6822 29.3178 8.75 22 8.75C21.1401 8.75 20.2982 8.83208 19.4821 8.98918C19.1722 9.04882 18.8662 9.11925 18.5644 9.20009C18.2321 9.28907 17.9049 9.39065 17.5834 9.50427C16.9325 9.73433 16.5914 10.4485 16.8215 11.0994C17.0515 11.7503 17.7657 12.0914 18.4166 11.8614C18.6769 11.7693 18.9419 11.6871 19.2111 11.615C19.4556 11.5495 19.7035 11.4924 19.9546 11.4441ZM14.4878 22.3659C15.1546 22.1869 15.8402 22.5822 16.0193 23.2489L16.0219 23.2586C16.2009 23.9253 15.8056 24.611 15.1389 24.79C14.4721 24.9691 13.7865 24.5738 13.6074 23.907L13.6048 23.8974C13.4258 23.2306 13.8211 22.545 14.4878 22.3659Z" fill="#005D92"/>
</svg>
