<svg width="48" height="48" viewBox="0 0 48 48" fill="none" xmlns="http://www.w3.org/2000/svg">
<path fill-rule="evenodd" clip-rule="evenodd" d="M12.7499 6C12.7499 5.30964 13.3096 4.75 13.9999 4.75H33.9999C34.6903 4.75 35.2499 5.30964 35.2499 6C35.2499 7.75268 35.7521 8.85553 36.5634 9.55093C37.4116 10.2779 38.8162 10.75 40.9999 10.75C41.6483 10.75 42.1891 11.2458 42.2452 11.8917C42.8638 19.0056 41.8111 24.8808 39.3012 29.8357C36.7939 34.7855 32.8811 38.7214 27.9329 42.0383L27.9136 42.0512L24.6571 44.0634C24.0698 44.4263 23.2996 44.2443 22.9367 43.6571C22.5738 43.0698 22.7557 42.2995 23.343 41.9366L26.56 39.9489C31.2449 36.805 34.8093 33.1711 37.071 28.7061C39.2087 24.4858 40.226 19.4378 39.8369 13.2084C37.8611 13.0616 36.1836 12.518 34.9365 11.4491C33.7057 10.3941 33.0357 8.95172 32.8243 7.25H15.1756C14.9642 8.95172 14.2942 10.3941 13.0634 11.4491C11.8159 12.5184 10.1378 13.062 8.1611 13.2086C7.46797 23.749 10.312 30.9435 16.5598 36.4922C17.076 36.9506 17.1228 37.7407 16.6644 38.2569C16.206 38.773 15.4159 38.8199 14.8997 38.3615C7.73083 31.9948 4.73168 23.6557 5.75464 11.8917C5.81081 11.2458 6.35156 10.75 6.99994 10.75C9.18371 10.75 10.5883 10.2779 11.4365 9.55093C12.2478 8.85553 12.7499 7.75268 12.7499 6ZM32.384 18.1161C32.8721 18.6043 32.8721 19.3957 32.384 19.8839L23.384 28.8839C22.8958 29.372 22.1043 29.372 21.6162 28.8839L16.6162 23.8839C16.128 23.3957 16.128 22.6043 16.6162 22.1161C17.1043 21.628 17.8958 21.628 18.384 22.1161L22.5001 26.2322L30.6162 18.1161C31.1043 17.628 31.8958 17.628 32.384 18.1161ZM19.5001 39.0572C20.1904 39.0572 20.7501 39.6168 20.7501 40.3072V40.3172C20.7501 41.0076 20.1904 41.5672 19.5001 41.5672C18.8097 41.5672 18.2501 41.0076 18.2501 40.3172V40.3072C18.2501 39.6168 18.8097 39.0572 19.5001 39.0572Z" fill="#005D92"/>
</svg>
