<svg width="48" height="48" viewBox="0 0 48 48" fill="none" xmlns="http://www.w3.org/2000/svg">
<path fill-rule="evenodd" clip-rule="evenodd" d="M24.0001 3.75C24.5284 3.75 24.9996 4.08209 25.1773 4.57958L29.881 17.75H43.0001C43.5728 17.75 44.0722 18.1391 44.2122 18.6944C44.3522 19.2497 44.097 19.8291 43.5927 20.1006L31.5751 26.5716L37.1607 40.5358C37.3733 41.0671 37.1978 41.6749 36.7348 42.0113C36.2718 42.3477 35.6395 42.3266 35.1999 41.9603L24.0001 32.6271L15.8003 39.4603C15.27 39.9022 14.4818 39.8306 14.0398 39.3002C13.5979 38.7699 13.6695 37.9817 14.1999 37.5397L23.1999 30.0397C23.6634 29.6534 24.3368 29.6534 24.8003 30.0397L33.0044 36.8764L28.8395 26.4642C28.6035 25.8741 28.8479 25.2008 29.4075 24.8994L38.0421 20.25H29.0001C28.4719 20.25 28.0006 19.9179 27.8229 19.4204L24.0001 8.71652L20.1773 19.4204C19.9996 19.9179 19.5284 20.25 19.0001 20.25H9.95812L18.5927 24.8994C19.1524 25.2008 19.3968 25.8741 19.1607 26.4642L16.1607 33.9642C15.9043 34.6052 15.1769 34.917 14.5359 34.6606C13.8949 34.4042 13.5831 33.6767 13.8395 33.0358L16.4252 26.5716L4.40749 20.1006C3.90329 19.8291 3.64805 19.2497 3.78805 18.6944C3.92804 18.1391 4.42746 17.75 5.00012 17.75H18.1192L22.8229 4.57958C23.0006 4.08209 23.4719 3.75 24.0001 3.75ZM12.0001 39.75C12.6905 39.75 13.2501 40.3096 13.2501 41V41.01C13.2501 41.7004 12.6905 42.26 12.0001 42.26C11.3098 42.26 10.7501 41.7004 10.7501 41.01V41C10.7501 40.3096 11.3098 39.75 12.0001 39.75Z" fill="#005D92"/>
</svg>
