<svg width="48" height="48" viewBox="0 0 48 48" fill="none" xmlns="http://www.w3.org/2000/svg">
<path fill-rule="evenodd" clip-rule="evenodd" d="M20.941 2.88197C21.5585 2.57323 22.3093 2.82351 22.618 3.44098L23.118 4.44098C23.4268 5.05846 23.1765 5.8093 22.559 6.11803C21.9415 6.42677 21.1907 6.17649 20.882 5.55902L20.382 4.55902C20.0732 3.94154 20.3235 3.1907 20.941 2.88197ZM38.059 2.88197C38.6765 3.1907 38.9268 3.94154 38.618 4.55902L38.118 5.55902C37.8093 6.17649 37.0585 6.42677 36.441 6.11803C35.8235 5.8093 35.5732 5.05846 35.882 4.44098L36.382 3.44098C36.6907 2.82351 37.4415 2.57323 38.059 2.88197ZM25.75 9.10399C25.75 6.97549 27.4755 5.25 29.604 5.25C31.6084 5.25 33.2782 6.78644 33.4447 8.78393L33.5452 9.99068C33.6915 11.7465 33.4797 13.5138 32.9225 15.1853L31.7343 18.75H35C37.0711 18.75 38.75 20.4289 38.75 22.5C38.75 23.1224 38.5984 23.7094 38.33 24.2261C39.4757 24.8678 40.25 26.0935 40.25 27.5C40.25 29.0667 39.2892 30.4091 37.9247 30.9699C38.1337 31.4372 38.25 31.955 38.25 32.5C38.25 34.0593 37.2983 35.3963 35.944 35.9619C36.1408 36.4128 36.25 36.9108 36.25 37.4343C36.25 39.5451 34.48 41.2244 32.3721 41.1134L17.0855 40.3089C16.504 42.5751 14.4476 44.25 12 44.25C9.10051 44.25 6.75 41.8995 6.75 39V21C6.75 18.1005 9.10051 15.75 12 15.75C14.3847 15.75 16.3981 17.34 17.0378 19.5177L19.8688 18.9515C20.1527 18.8947 20.4075 18.7396 20.5884 18.5136L24.102 14.1215C25.1688 12.788 25.75 11.1312 25.75 9.42349V9.10399ZM14.75 21C14.75 19.4812 13.5188 18.25 12 18.25C10.4812 18.25 9.25 19.4812 9.25 21V39C9.25 40.5188 10.4812 41.75 12 41.75C13.5188 41.75 14.75 40.5188 14.75 39V21ZM17.25 37.8141V22.0248L20.3591 21.4029C21.2198 21.2308 21.9922 20.7607 22.5405 20.0753L26.0542 15.6832C27.4756 13.9065 28.25 11.6988 28.25 9.42349V9.10399C28.25 8.3562 28.8562 7.75 29.604 7.75C30.3082 7.75 30.8948 8.28978 30.9533 8.99154L31.0539 10.1983C31.1721 11.6167 31.0009 13.0444 30.5508 14.3947L28.8141 19.6047C28.6871 19.9859 28.751 20.4049 28.9859 20.7309C29.2209 21.0568 29.5982 21.25 30 21.25H35C35.6904 21.25 36.25 21.8096 36.25 22.5C36.25 23.1904 35.6904 23.75 35 23.75H34.5C33.8096 23.75 33.25 24.3096 33.25 25C33.25 25.6904 33.8096 26.25 34.5 26.25H36.5C37.1904 26.25 37.75 26.8096 37.75 27.5C37.75 28.1904 37.1904 28.75 36.5 28.75H34.5C33.8096 28.75 33.25 29.3096 33.25 30C33.25 30.6904 33.8096 31.25 34.5 31.25C35.1904 31.25 35.75 31.8096 35.75 32.5C35.75 33.1904 35.1904 33.75 34.5 33.75H32.5C31.8096 33.75 31.25 34.3096 31.25 35C31.25 35.6904 31.8096 36.25 32.5 36.25H32.5657C33.2198 36.25 33.75 36.7802 33.75 37.4343C33.75 38.1128 33.1811 38.6525 32.5035 38.6169L17.25 37.8141ZM22 8.75C22.6904 8.75 23.25 9.30964 23.25 10V11C23.25 11.6904 22.6904 12.25 22 12.25C21.3096 12.25 20.75 11.6904 20.75 11V10C20.75 9.30964 21.3096 8.75 22 8.75ZM37 8.75C37.6904 8.75 38.25 9.30964 38.25 10V11C38.25 11.6904 37.6904 12.25 37 12.25C36.3096 12.25 35.75 11.6904 35.75 11V10C35.75 9.30964 36.3096 8.75 37 8.75ZM12 37.75C12.6904 37.75 13.25 38.3096 13.25 39V39.01C13.25 39.7004 12.6904 40.26 12 40.26C11.3096 40.26 10.75 39.7004 10.75 39.01V39C10.75 38.3096 11.3096 37.75 12 37.75Z" fill="#005D92"/>
</svg>
