<svg width="48" height="48" viewBox="0 0 48 48" fill="none" xmlns="http://www.w3.org/2000/svg">
<path fill-rule="evenodd" clip-rule="evenodd" d="M8 11.75C5.10051 11.75 2.75 14.1005 2.75 17V29C2.75 31.8992 5.10001 34.2495 7.99909 34.25C8.48886 35.4245 9.64802 36.25 11 36.25C12.7949 36.25 14.25 34.7949 14.25 33C14.25 31.2051 12.7949 29.75 11 29.75C9.64803 29.75 8.48887 30.5755 7.99909 31.75C6.48072 31.7495 5.25 30.5185 5.25 29V17C5.25 15.4812 6.48122 14.25 8 14.25H31C32.5188 14.25 33.75 15.4812 33.75 17V24.5C33.75 25.1904 34.3096 25.75 35 25.75C35.6904 25.75 36.25 25.1904 36.25 24.5V17C36.25 16.7454 36.2319 16.495 36.1968 16.25H39.5C41.0188 16.25 42.25 17.4812 42.25 19V19.5C42.25 20.1904 42.8096 20.75 43.5 20.75C44.1904 20.75 44.75 20.1904 44.75 19.5V19C44.75 16.1005 42.3995 13.75 39.5 13.75H35.1234C34.162 12.5319 32.6723 11.75 31 11.75H8ZM44.75 24.5C44.75 23.8096 44.1904 23.25 43.5 23.25C42.8096 23.25 42.25 23.8096 42.25 24.5V24.51C42.25 25.2004 42.8096 25.76 43.5 25.76C44.1904 25.76 44.75 25.2004 44.75 24.51V24.5ZM44.75 28.5C44.75 27.8096 44.1904 27.25 43.5 27.25C42.8096 27.25 42.25 27.8096 42.25 28.5V29C42.25 30.5188 41.0188 31.75 39.5 31.75H39.0009C38.5111 30.5755 37.352 29.75 36 29.75C34.2051 29.75 32.75 31.2051 32.75 33C32.75 34.7949 34.2051 36.25 36 36.25C37.352 36.25 38.5111 35.4245 39.0009 34.25H39.5C42.3995 34.25 44.75 31.8995 44.75 29V28.5ZM25 31.75C24.3096 31.75 23.75 32.3096 23.75 33C23.75 33.6904 24.3096 34.25 25 34.25H30C30.6904 34.25 31.25 33.6904 31.25 33C31.25 32.3096 30.6904 31.75 30 31.75H25ZM35.25 33C35.25 32.5858 35.5858 32.25 36 32.25C36.4142 32.25 36.75 32.5858 36.75 33C36.75 33.4142 36.4142 33.75 36 33.75C35.5858 33.75 35.25 33.4142 35.25 33ZM19 32.25C18.5858 32.25 18.25 32.5858 18.25 33C18.25 33.4142 18.5858 33.75 19 33.75C19.4142 33.75 19.75 33.4142 19.75 33C19.75 32.5858 19.4142 32.25 19 32.25ZM15.75 33C15.75 31.2051 17.2051 29.75 19 29.75C20.7949 29.75 22.25 31.2051 22.25 33C22.25 34.7949 20.7949 36.25 19 36.25C17.2051 36.25 15.75 34.7949 15.75 33ZM10.25 33C10.25 32.5858 10.5858 32.25 11 32.25C11.4142 32.25 11.75 32.5858 11.75 33C11.75 33.4142 11.4142 33.75 11 33.75C10.5858 33.75 10.25 33.4142 10.25 33Z" fill="#005D92"/>
</svg>
