<svg width="48" height="48" viewBox="0 0 48 48" fill="none" xmlns="http://www.w3.org/2000/svg">
<path fill-rule="evenodd" clip-rule="evenodd" d="M39.5394 26.7677C40.9915 18.1912 35.216 10.0616 26.6395 8.60954C22.5779 7.9219 18.6192 8.85399 15.419 10.9381C14.8405 11.3148 14.0661 11.1513 13.6894 10.5728C13.3126 9.99428 13.4762 9.21991 14.0547 8.84317C17.7605 6.42983 22.352 5.34808 27.0568 6.14462C36.9946 7.82711 43.6869 17.2472 42.0044 27.185C40.3219 37.1228 30.9018 43.815 20.964 42.1325C12.8491 40.7586 6.90119 34.2269 5.90527 26.4689C5.81737 25.7841 6.3012 25.1578 6.98594 25.0699C7.67068 24.982 8.29703 25.4658 8.38492 26.1505C9.24466 32.8478 14.3815 38.4825 21.3813 39.6676C29.9578 41.1196 38.0874 35.3441 39.5394 26.7677ZM10.0719 7.35688C9.84598 6.98037 9.4391 6.75 9.00002 6.75C8.56094 6.75 8.15406 6.98037 7.92816 7.35688L5.01513 12.2119C3.15667 15.3094 5.38782 19.25 9.00002 19.25C12.6122 19.25 14.8434 15.3094 12.9849 12.2119L10.0719 7.35688ZM7.15886 13.4982L9.00002 10.4296L10.8412 13.4982C11.6999 14.9293 10.669 16.75 9.00002 16.75C7.33106 16.75 6.30019 14.9293 7.15886 13.4982ZM16.25 20C16.25 19.3096 15.6904 18.75 15 18.75C14.3096 18.75 13.75 19.3096 13.75 20V20.5C13.75 22.5711 15.4289 24.25 17.5 24.25C19.5711 24.25 21.25 22.5711 21.25 20.5V20C21.25 19.3096 20.6904 18.75 20 18.75C19.3096 18.75 18.75 19.3096 18.75 20V20.5C18.75 21.1904 18.1904 21.75 17.5 21.75C16.8096 21.75 16.25 21.1904 16.25 20.5V20ZM29.25 20C29.25 19.3096 28.6904 18.75 28 18.75C27.3096 18.75 26.75 19.3096 26.75 20V20.5C26.75 22.5711 28.4289 24.25 30.5 24.25C32.5711 24.25 34.25 22.5711 34.25 20.5V20C34.25 19.3096 33.6904 18.75 33 18.75C32.3096 18.75 31.75 19.3096 31.75 20V20.5C31.75 21.1904 31.1904 21.75 30.5 21.75C29.8096 21.75 29.25 21.1904 29.25 20.5V20ZM23.3137 27.75C20.8605 27.75 18.5077 28.7245 16.773 30.4593L16.1161 31.1161C15.628 31.6043 15.628 32.3957 16.1161 32.8839C16.6043 33.372 17.3957 33.372 17.8839 32.8839L18.5407 32.227C19.8066 30.9612 21.5235 30.25 23.3137 30.25H24.6863C26.4765 30.25 28.1934 30.9612 29.4593 32.227L30.1161 32.8839C30.6043 33.372 31.3957 33.372 31.8839 32.8839C32.372 32.3957 32.372 31.6043 31.8839 31.1161L31.227 30.4593C29.4923 28.7245 27.1395 27.75 24.6863 27.75H23.3137ZM7.25 23.5C7.94036 23.5 8.5 22.9404 8.5 22.25C8.5 21.5596 7.94036 21 7.25 21C6.55964 21 6 21.5596 6 22.25C6 22.9404 6.55964 23.5 7.25 23.5Z" fill="#005D92"/>
</svg>
