<svg width="48" height="48" viewBox="0 0 48 48" fill="none" xmlns="http://www.w3.org/2000/svg">
<path fill-rule="evenodd" clip-rule="evenodd" d="M13.0838 3.37688C12.7397 2.7784 11.9756 2.57221 11.3771 2.91633C10.7786 3.26046 10.5725 4.02458 10.9166 4.62306L14.9862 11.7007C8.10902 14.8928 4.0209 21.0519 2.93084 22.8527C2.57334 23.4433 2.7623 24.2118 3.35288 24.5693C3.94346 24.9268 4.71203 24.7379 5.06953 24.1473C6.10531 22.4362 9.9415 16.7151 16.2377 13.8773L18.5125 17.8333C16.819 19.3437 15.75 21.5451 15.75 23.9963C15.75 28.5541 19.443 32.25 24 32.25C24.8947 32.25 25.7582 32.1071 26.5675 31.8421L28.5212 35.2398C27.0616 35.5637 25.4614 35.75 23.7096 35.75C17.0541 35.75 12.0292 32.0952 8.79032 28.6811C8.31518 28.1803 7.524 28.1594 7.02317 28.6346C6.52233 29.1097 6.50149 29.9009 6.97663 30.4017C10.4465 34.0593 16.0829 38.25 23.7096 38.25C25.9429 38.25 27.9759 37.9751 29.8201 37.4987L33.9166 44.6231C34.2607 45.2215 35.0248 45.4277 35.6233 45.0836C36.2218 44.7395 36.428 43.9753 36.0838 43.3769L13.0838 3.37688ZM25.2822 29.6067L19.7979 20.0688C18.8366 21.0978 18.25 22.4785 18.25 23.9963C18.25 27.1746 20.825 29.75 24 29.75C24.4416 29.75 24.8706 29.7004 25.2822 29.6067ZM24.3804 15.7513C23.6908 15.7199 23.1063 16.2535 23.0749 16.9432C23.0435 17.6328 23.5771 18.2173 24.2667 18.2487C27.3174 18.3876 29.75 20.9076 29.75 23.9963C29.75 24.9526 29.5179 25.8508 29.108 26.6414C28.7903 27.2543 29.0296 28.0087 29.6424 28.3264C30.2553 28.6442 31.0098 28.4049 31.3275 27.792C31.9173 26.6543 32.25 25.3624 32.25 23.9963C32.25 19.5661 28.7613 15.9507 24.3804 15.7513ZM4.24023 27C4.24023 26.3096 4.79988 25.75 5.49023 25.75H5.50023C6.19059 25.75 6.75023 26.3096 6.75023 27C6.75023 27.6904 6.19059 28.25 5.50023 28.25H5.49023C4.79988 28.25 4.24023 27.6904 4.24023 27ZM20.71 12.5023C21.6675 12.3393 22.6673 12.25 23.7096 12.25C28.8628 12.25 33.0343 14.4376 36.1677 17.0181C39.3069 19.6034 41.343 22.5357 42.1842 23.8787C42.2695 24.0148 42.2731 24.1576 42.211 24.2842C41.4053 25.9286 39.1481 29.8291 34.8227 32.6188C34.2763 32.9713 33.6969 33.306 33.0832 33.6163C32.4672 33.9278 32.2203 34.6798 32.5318 35.2958C32.8433 35.9119 33.5953 36.1588 34.2114 35.8473C34.9057 35.4962 35.5606 35.1178 36.1777 34.7198C41.039 31.5844 43.5499 27.2336 44.456 25.3842C44.9071 24.4637 44.8367 23.4039 44.3029 22.5516C43.383 21.0829 41.1803 17.9076 37.757 15.0883C34.3278 12.2641 29.6128 9.75 23.7096 9.75C22.5237 9.75 21.3835 9.85166 20.2904 10.0378C19.6098 10.1537 19.152 10.7993 19.2679 11.4799C19.3838 12.1604 20.0294 12.6182 20.71 12.5023Z" fill="#005D92"/>
</svg>
