<svg width="48" height="48" viewBox="0 0 48 48" fill="none" xmlns="http://www.w3.org/2000/svg">
<path fill-rule="evenodd" clip-rule="evenodd" d="M10.9076 17.3062C7.73406 20.0135 5.75421 23.0158 5.06928 24.1473C4.71179 24.7379 3.94322 24.9268 3.35263 24.5693C2.76205 24.2118 2.5731 23.4433 2.9306 22.8527C3.69004 21.5981 5.83166 18.3504 9.28509 15.4042C12.7434 12.454 17.5868 9.75 23.7094 9.75C29.6126 9.75 34.3275 12.2641 37.7567 15.0883C41.18 17.9076 43.3827 21.0829 44.3027 22.5516C44.8372 23.405 44.9056 24.4664 44.455 25.3859C42.9805 28.3944 37.124 38.25 23.7094 38.25C16.0827 38.25 10.4463 34.0593 6.97638 30.4017C6.50125 29.9009 6.52208 29.1097 7.02292 28.6346C7.52376 28.1594 8.31494 28.1803 8.79008 28.6811C12.0289 32.0952 17.0538 35.75 23.7094 35.75C35.6577 35.75 40.869 27.022 42.2101 24.2857C42.2727 24.1579 42.2685 24.0137 42.184 23.8787C41.3428 22.5357 39.3067 19.6034 36.1674 17.0181C33.0341 14.4376 28.8626 12.25 23.7094 12.25C18.3654 12.25 14.0763 14.603 10.9076 17.3062Z" fill="#005D92"/>
<path fill-rule="evenodd" clip-rule="evenodd" d="M4.24023 27C4.24023 26.3096 4.79988 25.75 5.49023 25.75H5.50023C6.19059 25.75 6.75023 26.3096 6.75023 27C6.75023 27.6904 6.19059 28.25 5.50023 28.25H5.49023C4.79988 28.25 4.24023 27.6904 4.24023 27Z" fill="#005D92"/>
<path fill-rule="evenodd" clip-rule="evenodd" d="M24 18.25C20.8244 18.25 18.25 20.8244 18.25 24C18.25 27.1756 20.8244 29.75 24 29.75C27.1756 29.75 29.75 27.1756 29.75 24C29.75 20.8244 27.1756 18.25 24 18.25ZM15.75 24C15.75 19.4437 19.4437 15.75 24 15.75C28.5563 15.75 32.25 19.4437 32.25 24C32.25 28.5563 28.5563 32.25 24 32.25C19.4437 32.25 15.75 28.5563 15.75 24Z" fill="#005D92"/>
</svg>
