<svg width="48" height="48" viewBox="0 0 48 48" fill="none" xmlns="http://www.w3.org/2000/svg">
<path fill-rule="evenodd" clip-rule="evenodd" d="M15.1178 3.44101C14.8091 2.82354 14.0582 2.57326 13.4408 2.882C12.8233 3.19073 12.573 3.94157 12.8818 4.55905L15.7042 10.204C11.8145 11.6041 8.16454 14.0113 5.07557 17.4092C4.61119 17.92 4.64883 18.7105 5.15966 19.1749C5.67048 19.6393 6.46104 19.6017 6.92542 19.0908C9.82163 15.905 13.231 13.6998 16.831 12.4575L19.2797 17.355C15.861 18.3267 12.6498 20.3662 10.0463 23.4425C9.60035 23.9695 9.66603 24.7582 10.193 25.2042C10.72 25.6501 11.5087 25.5845 11.9547 25.0575C14.3677 22.2061 17.3292 20.4114 20.421 19.6375L23.0277 24.851C20.031 25.1308 17.147 26.7051 15.0087 29.4885C14.5882 30.0359 14.691 30.8207 15.2385 31.2413C15.786 31.6618 16.5707 31.559 16.9913 31.0115C18.9843 28.4172 21.6625 27.2261 24.2572 27.3099L26.7979 32.3914C26.0766 31.6853 25.0891 31.25 24 31.25C21.7909 31.25 20 33.0409 20 35.25C20 37.4591 21.7909 39.25 24 39.25C26.2091 39.25 28 37.4591 28 35.25C28 35.0731 27.9885 34.8989 27.9663 34.7281L31.8818 42.559C32.1905 43.1765 32.9413 43.4268 33.5588 43.1181C34.1763 42.8093 34.4266 42.0585 34.1178 41.441L15.1178 3.44101ZM23.997 8.75C30.8603 8.74901 37.6944 11.6551 42.9254 17.4092C43.3898 17.92 43.3522 18.7105 42.8413 19.1749C42.3305 19.6393 41.54 19.6017 41.0756 19.0908C36.3049 13.8431 30.1362 11.2491 23.9974 11.25C23.307 11.2501 22.7473 10.6905 22.7472 10.0002C22.7471 9.30982 23.3066 8.7501 23.997 8.75ZM26.9654 18.1742C27.1454 17.5077 27.8315 17.1133 28.498 17.2932C32.0019 18.2391 35.2957 20.3005 37.9547 23.4425C38.4006 23.9695 38.335 24.7582 37.808 25.2042C37.281 25.6501 36.4923 25.5845 36.0463 25.0575C33.7017 22.2869 30.8399 20.5149 27.8464 19.7068C27.1799 19.5269 26.7855 18.8407 26.9654 18.1742ZM22.5 35.25C22.5 36.0784 23.1716 36.75 24 36.75C24.8284 36.75 25.5 36.0784 25.5 35.25C25.5 34.4216 24.8284 33.75 24 33.75C23.1716 33.75 22.5 34.4216 22.5 35.25Z" fill="#005D92"/>
</svg>
