<svg width="48" height="48" viewBox="0 0 48 48" fill="none" xmlns="http://www.w3.org/2000/svg">
<path fill-rule="evenodd" clip-rule="evenodd" d="M42.9254 17.4092C32.4295 5.86361 15.5715 5.86361 5.07557 17.4092C4.61119 17.92 4.64883 18.7105 5.15966 19.1749C5.67048 19.6393 6.46104 19.6017 6.92542 19.0908C16.4295 8.63639 31.5715 8.63639 41.0756 19.0908C41.54 19.6017 42.3305 19.6393 42.8413 19.1749C43.3522 18.7105 43.3898 17.92 42.9254 17.4092ZM37.9547 23.4425C30.3411 14.4459 17.6599 14.4459 10.0463 23.4425C9.60035 23.9695 9.66602 24.7582 10.193 25.2042C10.72 25.6501 11.5087 25.5845 11.9547 25.0575C18.5696 17.2409 29.4314 17.2409 36.0463 25.0575C36.4923 25.5845 37.281 25.6501 37.808 25.2042C38.335 24.7582 38.4006 23.9695 37.9547 23.4425ZM32.9918 29.4885C30.6245 26.4071 27.3425 24.8057 24.0003 24.8057C20.658 24.8057 17.376 26.4071 15.0087 29.4885C14.5882 30.0359 14.691 30.8207 15.2385 31.2413C15.786 31.6618 16.5707 31.559 16.9913 31.0115C18.9202 28.5006 21.4903 27.3057 24.0003 27.3057C26.5102 27.3057 29.0803 28.5006 31.0092 31.0115C31.4298 31.559 32.2146 31.6618 32.762 31.2413C33.3095 30.8207 33.4123 30.0359 32.9918 29.4885ZM24 36.75C23.1716 36.75 22.5 36.0784 22.5 35.25C22.5 34.4216 23.1716 33.75 24 33.75C24.8284 33.75 25.5 34.4216 25.5 35.25C25.5 36.0784 24.8284 36.75 24 36.75ZM20 35.25C20 33.0409 21.7909 31.25 24 31.25C26.2091 31.25 28 33.0409 28 35.25C28 37.4591 26.2091 39.25 24 39.25C21.7909 39.25 20 37.4591 20 35.25Z" fill="#005D92"/>
</svg>
